<svg width="24" height="24" viewBox="0 0 24 24" fill="none" xmlns="http://www.w3.org/2000/svg">
<path d="M16.431 0L6.90167 0C2.77284 0 -0.000328064 2.65533 -0.000328064 6.60917L-0.000328064 16.7242C-0.000328064 20.678 2.77284 23.3333 6.90167 23.3333L16.431 23.3333C20.5587 23.3333 23.333 20.6768 23.333 16.723L23.333 6.60917C23.333 2.65533 20.5587 0 16.431 0Z" fill="#03DAC6"/>
<path d="M10.6679 6.67421L6.2754 11.0469C5.94523 11.3759 5.94523 11.958 6.2754 12.2882L10.6679 16.6609C11.0109 17.0015 11.5651 17.0004 11.9057 16.6574C12.2464 16.3144 12.2464 15.7614 11.9034 15.4195L9.01357 12.5414L16.4277 12.5414C16.9119 12.5414 17.3027 12.1494 17.3027 11.6664C17.3027 11.1834 16.9119 10.7914 16.4277 10.7914L9.01357 10.7914L11.9034 7.91437C12.0749 7.74287 12.1601 7.51887 12.1601 7.29371C12.1601 7.07087 12.0749 6.84687 11.9057 6.67654C11.5651 6.33471 11.0109 6.33354 10.6679 6.67421Z" fill="white"/>
</svg>
