<svg width="22" height="20" viewBox="0 0 22 20" fill="none" xmlns="http://www.w3.org/2000/svg">
<path d="M13.4018 0.791287C11.8624 0.0695713 10.1372 0.0695707 8.59778 0.791287L1.34907 4.18964C0.183407 4.73613 -0.120507 6.27715 0.437337 7.34222L0.437337 12.7083C0.437337 13.1571 0.801106 13.5208 1.24984 13.5208C1.69857 13.5208 2.06234 13.1571 2.06234 12.7083V8.56137L8.59788 11.6254C10.1373 12.3471 11.8625 12.3471 13.4019 11.6254L20.6506 8.22702C22.2274 7.48781 22.2274 4.92891 20.6506 4.18969L13.4018 0.791287Z" fill="#03DAC6"/>
<path d="M3.4165 10.991V15.0109C3.4165 16.1029 3.96197 17.1253 4.91728 17.6544C6.50802 18.5353 9.05416 19.75 10.9998 19.75C12.9455 19.75 15.4917 18.5353 17.0824 17.6544C18.0377 17.1253 18.5832 16.1029 18.5832 15.0109V10.991L14.0917 13.0967C12.1152 14.0233 9.88455 14.0233 7.90808 13.0967L3.4165 10.991Z" fill="#03DAC6"/>
</svg>
