<svg width="175" height="223" viewBox="0 0 175 223" fill="none" xmlns="http://www.w3.org/2000/svg">
<g filter="url(#filter0_d_1808_22649)">
<path d="M131.135 12.1165H43.5813C33.8714 12.1165 26 19.9879 26 29.6977V165.003C26 174.712 33.8714 182.584 43.5813 182.584H131.135C140.845 182.584 148.716 174.712 148.716 165.003V29.6977C148.716 19.9879 140.845 12.1165 131.135 12.1165Z" fill="black"/>
</g>
<path d="M131.135 12.1165H43.5813C33.8714 12.1165 26 19.9879 26 29.6977V165.003C26 174.712 33.8714 182.584 43.5813 182.584H131.135C140.845 182.584 148.716 174.712 148.716 165.003V29.6977C148.716 19.9879 140.845 12.1165 131.135 12.1165Z" fill="white"/>
<path fill-rule="evenodd" clip-rule="evenodd" d="M38.3426 36.7284H136.372C137.667 36.7284 138.716 37.779 138.716 39.0732V165.654C138.716 166.95 137.667 167.998 136.372 167.998H38.3426C37.721 167.998 37.1249 167.751 36.6854 167.311C36.2459 166.872 35.999 166.276 35.999 165.654V39.0732C35.999 37.7777 37.0483 36.7284 38.3426 36.7284Z" fill="white"/>
<path fill-rule="evenodd" clip-rule="evenodd" d="M38.3426 36.7284H136.372C137.667 36.7284 138.716 37.779 138.716 39.0732V165.654C138.716 166.95 137.667 167.998 136.372 167.998H38.3426C37.721 167.998 37.1249 167.751 36.6854 167.311C36.2459 166.872 35.999 166.276 35.999 165.654V39.0732C35.999 37.7777 37.0483 36.7284 38.3426 36.7284Z" fill="white"/>
<path d="M109.764 152.86C117.501 152.86 123.773 146.591 123.773 138.858C123.773 131.124 117.501 124.855 109.764 124.855C102.027 124.855 95.7554 131.124 95.7554 138.858C95.7554 146.591 102.027 152.86 109.764 152.86Z" fill="url(#paint0_linear_1808_22649)"/>
<path d="M107.517 144.053C107.643 144.18 107.793 144.282 107.958 144.351C108.124 144.42 108.301 144.455 108.481 144.455C108.66 144.455 108.837 144.42 109.003 144.351C109.168 144.282 109.318 144.18 109.445 144.053L116.262 137.216C116.795 136.682 116.795 135.818 116.262 135.283C115.73 134.748 114.867 134.749 114.334 135.283L108.481 141.153L105.354 138.018C105.228 137.891 105.077 137.79 104.912 137.721C104.746 137.652 104.569 137.617 104.39 137.617C104.211 137.617 104.033 137.652 103.868 137.721C103.703 137.79 103.552 137.891 103.426 138.018C103.17 138.274 103.027 138.622 103.027 138.984C103.027 139.346 103.17 139.694 103.426 139.951L107.517 144.053Z" fill="white"/>
<path d="M120.982 66.8113H53.7327C51.9708 66.8113 50.5425 68.2396 50.5425 70.0015V70.0027C50.5425 71.7646 51.9708 73.1929 53.7327 73.1929H120.982C122.744 73.1929 124.172 71.7646 124.172 70.0027V70.0015C124.172 68.2396 122.744 66.8113 120.982 66.8113Z" fill="#ABAEB9"/>
<path d="M120.982 81.3973H53.7327C51.9708 81.3973 50.5425 82.8256 50.5425 84.5875V84.5888C50.5425 86.3507 51.9708 87.779 53.7327 87.779H120.982C122.744 87.779 124.172 86.3507 124.172 84.5888V84.5875C124.172 82.8256 122.744 81.3973 120.982 81.3973Z" fill="#ABAEB9"/>
<path d="M120.982 96.8942H53.7327C51.9708 96.8942 50.5425 98.3225 50.5425 100.084V100.086C50.5425 101.848 51.9708 103.276 53.7327 103.276H120.982C122.744 103.276 124.172 101.848 124.172 100.086V100.084C124.172 98.3225 122.744 96.8942 120.982 96.8942Z" fill="#ABAEB9"/>
<path d="M80.0763 128.8H53.7327C51.9708 128.8 50.5425 130.228 50.5425 131.99V131.991C50.5425 133.753 51.9708 135.181 53.7327 135.181H80.0763C81.8382 135.181 83.2665 133.753 83.2665 131.991V131.99C83.2665 130.228 81.8382 128.8 80.0763 128.8Z" fill="#ABAEB9"/>
<path d="M67.3502 141.562H53.7327C51.9708 141.562 50.5425 142.99 50.5425 144.752V144.753C50.5425 146.515 51.9708 147.943 53.7327 147.943H67.3502C69.1121 147.943 70.5404 146.515 70.5404 144.753V144.752C70.5404 142.99 69.1121 141.562 67.3502 141.562Z" fill="#ABAEB9"/>
<path fill-rule="evenodd" clip-rule="evenodd" d="M64.1785 21.2316H111.446V43.9874C111.446 44.9224 111.223 45.8438 110.794 46.6748C110.366 47.5058 109.745 48.2222 108.983 48.7642C108.221 49.3061 107.341 49.658 106.415 49.7904C105.49 49.9227 104.546 49.8317 103.663 49.525L89.732 44.6891C88.4874 44.2571 87.1336 44.2571 85.8889 44.6891L71.9584 49.525C71.0754 49.8312 70.132 49.9218 69.2069 49.7893C68.2818 49.6567 67.4018 49.3049 66.6403 48.7631C65.8789 48.2213 65.258 47.5053 64.8295 46.6747C64.4011 45.8442 64.1774 44.9232 64.1772 43.9887L64.1785 21.2316Z" stroke="#98A2B3" stroke-width="2.741"/>
<path d="M115.321 3H59.3923C55.5087 3 52.3604 6.14833 52.3604 10.032V18.7572C52.3604 22.6409 55.5087 25.7892 59.3923 25.7892H115.321C119.205 25.7892 122.353 22.6409 122.353 18.7572V10.032C122.353 6.14833 119.205 3 115.321 3Z" fill="#98A2B3"/>
<defs>
<filter id="filter0_d_1808_22649" x="0" y="0.116455" width="174.716" height="222.467" filterUnits="userSpaceOnUse" color-interpolation-filters="sRGB">
<feFlood flood-opacity="0" result="BackgroundImageFix"/>
<feColorMatrix in="SourceAlpha" type="matrix" values="0 0 0 0 0 0 0 0 0 0 0 0 0 0 0 0 0 0 127 0" result="hardAlpha"/>
<feOffset dy="14"/>
<feGaussianBlur stdDeviation="13"/>
<feColorMatrix type="matrix" values="0 0 0 0 0.226735 0 0 0 0 0.437054 0 0 0 0 0.687819 0 0 0 0.189057 0"/>
<feBlend mode="normal" in2="BackgroundImageFix" result="effect1_dropShadow_1808_22649"/>
<feBlend mode="normal" in="SourceGraphic" in2="effect1_dropShadow_1808_22649" result="shape"/>
</filter>
<linearGradient id="paint0_linear_1808_22649" x1="109.764" y1="110.853" x2="81.7594" y2="138.871" gradientUnits="userSpaceOnUse">
<stop stop-color="#03DAC6"/>
<stop offset="0.9999" stop-color="#62ADBA"/>
<stop offset="1" stop-color="#FF62A5"/>
</linearGradient>
</defs>
</svg>
