<svg width="188" height="199" viewBox="0 0 188 199" fill="none" xmlns="http://www.w3.org/2000/svg">
<mask id="mask0_1045_19119" style="mask-type:alpha" maskUnits="userSpaceOnUse" x="0" y="0" width="188" height="199">
<rect width="188" height="199" rx="21.8201" fill="#FFCCD2"/>
</mask>
<g mask="url(#mask0_1045_19119)">
<path d="M0 21.8201C0 9.76918 9.76917 0 21.8201 0H166.18C178.231 0 188 9.76918 188 21.8201V177.18C188 189.231 178.231 199 166.18 199H21.8201C9.76918 199 0 189.231 0 177.18V21.8201Z" fill="#FF7A82"/>
<path d="M147.822 102.062C143.72 104.9 135.201 108.873 133.944 102.062C132.373 93.5484 137.348 75.1016 147.822 81.7235C158.296 88.3454 197.049 134.226 160.391 133.989C123.732 133.753 111.949 122.401 116.924 102.062C121.899 81.7235 130.017 10.0647 177.673 53.8167C225.329 97.5688 235.279 137.537 208.833 147.47C182.386 157.403 129.493 178.451 105.665 160.477C81.8368 142.503 79.742 49.7962 105.665 28.9844C131.588 8.17264 175.243 10.7356 200.977 19.5245C238.109 32.2056 287.649 90.4738 275.866 115.543" stroke="white" stroke-opacity="0.5" stroke-width="2.18201"/>
<rect x="21" y="149.442" width="28" height="29.7968" rx="4" fill="white" fill-opacity="0.5"/>
<path fill-rule="evenodd" clip-rule="evenodd" d="M28.3117 162.761C31.2301 157.587 32.6893 155 35 155C37.3107 155 38.7699 157.587 41.6883 162.761L42.0519 163.406C44.4771 167.706 45.6897 169.856 44.5937 171.428C43.4978 173 40.7864 173 35.3637 173H34.6363C29.2136 173 26.5022 173 25.4063 171.428C24.3103 169.856 25.5229 167.706 27.9481 163.406L28.3117 162.761ZM35 159.25C35.4142 159.25 35.75 159.586 35.75 160V165C35.75 165.414 35.4142 165.75 35 165.75C34.5858 165.75 34.25 165.414 34.25 165V160C34.25 159.586 34.5858 159.25 35 159.25ZM35 169C35.5523 169 36 168.552 36 168C36 167.448 35.5523 167 35 167C34.4477 167 34 167.448 34 168C34 168.552 34.4477 169 35 169Z" fill="#29284F"/>
<rect x="62" y="148" width="32" height="32" rx="16" fill="white" fill-opacity="0.5"/>
<path d="M82.921 166.888L82.3654 159.798C82.3234 159.265 81.8133 158.81 81.2778 158.827L74.1709 159.074C73.6166 159.094 73.2043 159.558 73.2508 160.111C73.2973 160.664 73.7818 161.096 74.3371 161.077L79.014 160.916L73.4849 167.108C73.1238 167.512 73.1758 168.145 73.599 168.523C74.0222 168.901 74.6572 168.881 75.0182 168.477L80.5473 162.285L80.913 166.949C80.9353 167.227 81.0681 167.473 81.2654 167.649C81.4606 167.824 81.7204 167.928 81.9958 167.92C82.5494 167.903 82.9636 167.441 82.921 166.888Z" fill="black"/>
</g>
</svg>
