<svg width="24" height="24" viewBox="0 0 24 24" fill="none" xmlns="http://www.w3.org/2000/svg">
<path d="M3.51212 9C3.18046 9.93834 3 10.9481 3 12C3 16.9706 7.02944 21 12 21C16.9706 21 21 16.9706 21 12C21 10.9481 20.8195 9.93834 20.4879 9M3.51212 9C4.74763 5.50442 8.08134 3 12 3C15.9187 3 19.2524 5.50442 20.4879 9M3.51212 9H20.4879M3.51212 15H20.4879M12.75 3.03081C12.75 3.03081 15.75 6.75 15.75 12C15.75 17.25 12.75 21 12.75 21M11.25 3.03081C11.25 3.03081 8.25 6.75 8.25 12C8.25 17.25 11.25 20.9692 11.25 20.9692" stroke="#04030A" stroke-opacity="0.6" stroke-width="1.5"/>
</svg>
