<svg width="188" height="199" viewBox="0 0 188 199" fill="none" xmlns="http://www.w3.org/2000/svg">
<mask id="mask0_1040_18984" style="mask-type:alpha" maskUnits="userSpaceOnUse" x="0" y="0" width="188" height="199">
<rect width="188" height="199" rx="21.8201" fill="#FFCCD2"/>
</mask>
<g mask="url(#mask0_1040_18984)">
<path d="M0 21.8201C0 9.76918 9.76917 0 21.8201 0H166.18C178.231 0 188 9.76918 188 21.8201V177.18C188 189.231 178.231 199 166.18 199H21.8201C9.76918 199 0 189.231 0 177.18V21.8201Z" fill="#005EFF" fill-opacity="0.2"/>
<path d="M147.822 102.062C143.72 104.9 135.201 108.873 133.944 102.062C132.373 93.5484 137.348 75.1016 147.822 81.7235C158.296 88.3454 197.049 134.226 160.391 133.989C123.732 133.753 111.949 122.401 116.924 102.062C121.899 81.7235 130.017 10.0647 177.673 53.8167C225.329 97.5688 235.279 137.537 208.833 147.47C182.386 157.403 129.493 178.451 105.665 160.477C81.8368 142.503 79.742 49.7962 105.665 28.9844C131.588 8.17264 175.243 10.7356 200.977 19.5245C238.109 32.2056 287.649 90.4738 275.866 115.543" stroke="white" stroke-opacity="0.5" stroke-width="2.18201"/>
<rect x="21" y="149.442" width="28" height="29.7968" rx="4" fill="white" fill-opacity="0.5"/>
<path fill-rule="evenodd" clip-rule="evenodd" d="M28.6363 155.692C28.9035 155.413 29.2787 155.232 29.9872 155.132C30.7165 155.03 31.683 155.028 33.069 155.028H36.931C38.317 155.028 39.2835 155.03 40.0129 155.132C40.7213 155.232 41.0965 155.413 41.3637 155.692C41.6309 155.97 41.8052 156.362 41.9004 157.1C41.9985 157.861 42 158.868 42 160.313V167.611L30.9274 167.611C30.1377 167.611 29.5988 167.611 29.1366 167.74C28.7234 167.856 28.3401 168.044 28 168.292V160.313C28 158.868 28.0015 157.861 28.0996 157.1C28.1948 156.362 28.3691 155.97 28.6363 155.692ZM31.1379 158.552C30.738 158.552 30.4138 158.89 30.4138 159.307C30.4138 159.724 30.738 160.062 31.1379 160.062H38.8621C39.262 160.062 39.5862 159.724 39.5862 159.307C39.5862 158.89 39.262 158.552 38.8621 158.552H31.1379ZM30.4138 162.83C30.4138 162.413 30.738 162.075 31.1379 162.075H35.9655C36.3654 162.075 36.6897 162.413 36.6897 162.83C36.6897 163.247 36.3654 163.585 35.9655 163.585H31.1379C30.738 163.585 30.4138 163.247 30.4138 162.83Z" fill="#29284F"/>
<path d="M31.0392 169.121C30.0947 169.121 29.7645 169.128 29.5115 169.199C28.8169 169.393 28.2633 169.931 28.0258 170.631C28.0405 170.987 28.0635 171.3 28.0996 171.58C28.1948 172.318 28.3691 172.709 28.6363 172.988C28.9035 173.267 29.2787 173.448 29.9872 173.548C30.7165 173.65 31.683 173.651 33.069 173.651H36.931C38.317 173.651 39.2835 173.65 40.0129 173.548C40.7213 173.448 41.0965 173.267 41.3637 172.988C41.5533 172.79 41.696 172.536 41.797 172.141H31.1379C30.738 172.141 30.4138 171.803 30.4138 171.386C30.4138 170.969 30.738 170.631 31.1379 170.631H41.9741C41.992 170.198 41.9976 169.7 41.9993 169.121H31.0392Z" fill="#29284F"/>
<rect x="62" y="149" width="32" height="32" rx="16" fill="white" fill-opacity="0.5"/>
<path d="M82.921 167.888L82.3654 160.798C82.3234 160.265 81.8133 159.81 81.2778 159.827L74.1709 160.074C73.6166 160.094 73.2043 160.558 73.2508 161.111C73.2973 161.664 73.7818 162.096 74.3371 162.077L79.014 161.916L73.4849 168.108C73.1238 168.512 73.1758 169.145 73.599 169.523C74.0222 169.901 74.6572 169.881 75.0182 169.477L80.5473 163.285L80.913 167.949C80.9353 168.227 81.0681 168.473 81.2654 168.649C81.4606 168.824 81.7204 168.928 81.9958 168.92C82.5494 168.903 82.9636 168.441 82.921 167.888Z" fill="black"/>
</g>
</svg>
