<svg width="57" height="60" viewBox="0 0 57 60" fill="none" xmlns="http://www.w3.org/2000/svg">
<path fill-rule="evenodd" clip-rule="evenodd" d="M36.0511 5.5945C28.7415 7.87704 13.9116 13.4041 8.83045 20.3121C6.44955 23.5531 2.41006 28.1501 3.27024 32.5128C3.63318 34.309 5.78178 34.2026 7.15733 33.7553C10.7142 32.6016 14.0533 30.7095 17.5194 29.2896C18.5828 28.8494 21.5117 27.3727 22.0162 29.3712C22.7783 32.4276 19.0727 37.0531 17.6391 39.3817C15.4592 42.9505 14.089 46.9359 13.6214 51.0678C13.3274 53.7621 13.429 58.2739 16.5829 59.4702C20.8257 61.0783 23.1558 58.81 25.7727 55.5654C27.517 53.4418 29.0153 51.1357 30.2404 48.6894C31.0026 47.1239 31.5543 44.7349 33.1439 43.7196C35.1075 42.502 37.59 42.6547 39.7459 41.8915C44.6965 40.184 50.2712 35.7077 53.2945 31.5508C54.2345 30.2658 55.7335 28.4341 55.6101 26.7053C55.4686 24.7707 53.0477 24.2205 51.5161 23.9613C48.7541 23.5247 40.2649 25.2037 38.6317 22.7863C37.3614 20.9049 39.9636 18.136 41.0561 16.9326C43.3717 14.3768 46.032 12.1404 48.2968 9.53482C48.9719 8.75741 50.5144 7.19193 50.2567 5.98499C49.8901 4.18523 41.2738 3.96513 36.0511 5.5945Z" fill="#FFF9F0"/>
<path fill-rule="evenodd" clip-rule="evenodd" d="M47.7088 22.4491C47.8866 20.6174 48.9863 19.1726 50.9752 19.1797C51.7338 19.1797 52.8189 19.3607 53.7444 19.2578C54.3203 19.2264 54.8642 18.9889 55.2725 18.5904C55.5548 18.2662 55.7228 17.8617 55.7515 17.4367L55.2725 17.387C55.2515 17.7132 55.1243 18.0242 54.9096 18.2745C54.5835 18.5937 54.1473 18.7823 53.6864 18.8034C52.779 18.9028 51.7156 18.7253 50.9716 18.7218C48.7032 18.7218 47.422 20.3369 47.2188 22.4207L47.7088 22.4491Z" fill="#279FF2"/>
<path fill-rule="evenodd" clip-rule="evenodd" d="M53.6864 15.9138C53.0071 16.4149 52.2412 16.7925 51.4253 17.0285L51.5813 17.4722C52.4526 17.2225 53.2696 16.8182 53.9913 16.2795L53.6864 15.9138Z" fill="#279FF2"/>
<path fill-rule="evenodd" clip-rule="evenodd" d="M0 38.4765C1.38644 39.254 2.49703 39.403 3.43705 39.1865C4.39077 38.9087 5.2401 38.3632 5.87965 37.6175C6.56561 36.9075 7.20804 36.0414 7.90489 35.2568C8.52551 34.4893 9.3094 33.8631 10.2023 33.4216L10.0026 32.9885C9.04876 33.4608 8.2097 34.1278 7.54195 34.9445C6.8451 35.7219 6.20993 36.581 5.52397 37.2945C4.95004 37.9696 4.18479 38.4636 3.32452 38.7144C2.47886 38.9132 1.4844 38.757 0.23951 38.0577L0 38.4765Z" fill="#279FF2"/>
<path fill-rule="evenodd" clip-rule="evenodd" d="M9.40733 31.9377C8.6145 32.3656 7.86898 32.8724 7.18254 33.45C6.52736 34.0062 5.79401 34.4676 5.00488 34.8202L5.18272 35.2568C6.02094 34.8959 6.80093 34.4176 7.49825 33.8369C8.16092 33.2788 8.87954 32.7876 9.64321 32.3708L9.40733 31.9377Z" fill="#279FF2"/>
<path fill-rule="evenodd" clip-rule="evenodd" d="M39.7966 4.28104C40.831 3.14865 41.9742 2.97825 43.1792 3.1025C44.0321 3.18769 44.9213 3.41487 45.8432 3.58172L45.9303 3.11669C44.9939 2.94985 44.0938 2.71911 43.2264 2.63037C41.8653 2.49192 40.595 2.69427 39.4373 3.96866L39.7966 4.28104Z" fill="#279FF2"/>
<path fill-rule="evenodd" clip-rule="evenodd" d="M20.9744 56.8505C21.6168 55.5583 22.6222 55.1324 23.7727 54.9194C24.5857 54.7738 25.4676 54.7277 26.3532 54.5892L26.277 54.1242C25.3877 54.2626 24.5022 54.3052 23.6856 54.4579C22.3863 54.6922 21.2611 55.1891 20.5388 56.6446L20.9744 56.8505Z" fill="#279FF2"/>
<path fill-rule="evenodd" clip-rule="evenodd" d="M21.9797 53.1302C22.7056 52.7326 23.4315 52.864 24.1574 53.0557C24.974 53.2722 25.8016 53.5633 26.6618 53.4568L26.6001 52.9882C25.8016 53.0876 25.0394 52.8001 24.2808 52.5977C23.4352 52.3741 22.5968 52.2428 21.7402 52.7149L21.9797 53.1302Z" fill="#A14DF6"/>
<path fill-rule="evenodd" clip-rule="evenodd" d="M52.0095 20.7878C52.8513 20.6728 53.7002 20.6147 54.5501 20.6138C55.4676 20.5861 56.3414 20.224 57 19.5986L56.6661 19.2436C55.8132 20.0352 54.9639 20.1239 54.0384 20.1523C53.3247 20.1403 52.6114 20.1938 51.908 20.3121L52.0095 20.7878Z" fill="#A14DF6"/>
<path fill-rule="evenodd" clip-rule="evenodd" d="M5.16106 32.8891C6.22085 32.4099 7.33871 32.1792 8.32954 31.5402L8.05733 31.1462C7.1028 31.7745 5.99581 31.991 4.96143 32.4596L5.16106 32.8891Z" fill="#A14DF6"/>
<path fill-rule="evenodd" clip-rule="evenodd" d="M41.7093 4.84903C42.5136 4.39184 43.4593 4.23306 44.3734 4.40175C45.3243 4.51534 46.2824 4.75673 47.2769 4.75673V4.28107C46.297 4.28107 45.3533 4.03613 44.4241 3.92608C43.4018 3.74473 42.3469 3.92865 41.4517 4.44434L41.7093 4.84903Z" fill="#A14DF6"/>
<path fill-rule="evenodd" clip-rule="evenodd" d="M45.8795 46.9678C45.0992 48.086 44.3625 49.2326 43.5676 50.3366L43.9632 50.6099C44.758 49.5023 45.4985 48.3557 46.2788 47.2375L45.8795 46.9678Z" fill="#F56C2C"/>
<path fill-rule="evenodd" clip-rule="evenodd" d="M43.5239 48.0434C44.6868 48.4254 45.7916 48.9592 46.8086 49.6301L47.0662 49.2325C46.0137 48.537 44.8697 47.9842 43.6654 47.589L43.5239 48.0434Z" fill="#F56C2C"/>
<path fill-rule="evenodd" clip-rule="evenodd" d="M44.729 46.8045C44.8693 47.9792 45.0936 49.1428 45.4004 50.2869L45.8686 50.1662C45.5658 49.0446 45.345 47.9034 45.208 46.7512L44.729 46.8045Z" fill="#F56C2C"/>
<path fill-rule="evenodd" clip-rule="evenodd" d="M14.1038 2.00208C13.2763 3.25516 12.6121 4.60409 11.8318 5.88203L12.2456 6.12697C13.0223 4.84903 13.6974 3.50366 14.5103 2.25767L14.1038 2.00208Z" fill="#F56C2C"/>
<path fill-rule="evenodd" clip-rule="evenodd" d="M11.5852 3.57816C12.674 3.8586 13.5451 4.49756 14.5613 4.93064L14.7537 4.49402C13.7157 4.05384 12.8192 3.40778 11.705 3.12024L11.5852 3.57816Z" fill="#F56C2C"/>
<path fill-rule="evenodd" clip-rule="evenodd" d="M12.5105 2.42804C12.7791 3.51428 13.0368 4.60763 13.3199 5.69388L13.7881 5.57673C13.5086 4.51178 13.2473 3.40424 12.9823 2.31799L12.5105 2.42804Z" fill="#F56C2C"/>
<path fill-rule="evenodd" clip-rule="evenodd" d="M35.3977 52.8001C35.5719 54.678 36.2578 56.4635 36.6389 58.3023L37.1108 58.21C36.7478 56.3854 36.0509 54.6176 35.8767 52.7575L35.3977 52.8001Z" fill="#FFBA16"/>
<path fill-rule="evenodd" clip-rule="evenodd" d="M36.2651 52.2357C36.5192 52.8605 36.7478 53.4959 36.991 54.1242L37.4447 53.9574C37.2015 53.3255 36.9692 52.6901 36.7188 52.0618L36.2651 52.2357Z" fill="#FFBA16"/>
<path fill-rule="evenodd" clip-rule="evenodd" d="M47.8794 35.1575C49.4655 35.3421 50.7829 35.8675 52.2347 36.4177L52.4053 35.9775C50.9027 35.4166 49.5634 34.8771 47.9374 34.6854L47.8794 35.1575Z" fill="#FFBA16"/>
<path fill-rule="evenodd" clip-rule="evenodd" d="M48.823 33.592C49.8029 33.7198 50.9099 34.0996 51.9007 34.0712V33.5991C50.9353 33.6275 49.8574 33.2441 48.9028 33.1234L48.823 33.592Z" fill="#FFBA16"/>
<path fill-rule="evenodd" clip-rule="evenodd" d="M29.4491 2.31092C29.4491 1.53706 29.391 0.770312 29.3511 0L28.8684 0.0248297C28.9083 0.788042 28.9445 1.55482 28.9663 2.32158L29.4491 2.31092Z" fill="#FFBA16"/>
<path fill-rule="evenodd" clip-rule="evenodd" d="M6.14087 24.7139C7.61804 24.8026 9.06259 25.1221 10.5361 25.2357L10.576 24.7636C9.09884 24.65 7.65074 24.3305 6.17357 24.2418L6.14087 24.7139Z" fill="#FFBA16"/>
<path fill-rule="evenodd" clip-rule="evenodd" d="M46.5837 10.3371L20.6587 5.59448C20.5353 21.0362 17.0293 31.0609 7.48755 42.9919L33.2564 51.2382C42.2828 39.2646 45.415 25.5481 46.5837 10.3371Z" fill="#DDE2ED"/>
<path fill-rule="evenodd" clip-rule="evenodd" d="M18.7968 10.8412L11.0261 18.4485L18.7931 26.0486L19.7912 25.076L13.015 18.4485L19.7912 11.8209L18.7968 10.8412Z" fill="#F56C2C"/>
<path fill-rule="evenodd" clip-rule="evenodd" d="M36.8532 26.0415L44.6237 33.6381L36.8532 41.2383L35.8586 40.2692L42.6348 33.6381L35.8586 27.0142L36.8532 26.0415Z" fill="#F56C2C"/>
</svg>
