<svg width="26" height="30" viewBox="0 0 26 30" fill="none" xmlns="http://www.w3.org/2000/svg">
<g clip-path="url(#clip0_629_17203)">
<path d="M15.5139 5.625H21.7601C22.196 5.62495 22.6272 5.7335 23.0261 5.94373C23.425 6.15397 23.7828 6.46127 24.0768 6.84604C24.3708 7.23081 24.5945 7.68459 24.7336 8.17846C24.8727 8.67232 24.9242 9.19541 24.8847 9.71438L23.8855 22.8394C23.8147 23.7711 23.455 24.6375 22.8772 25.2685C22.2994 25.8996 21.5451 26.2496 20.7624 26.25H4.52897C3.7463 26.2496 2.99201 25.8996 2.41418 25.2685C1.83635 24.6375 1.47672 23.7711 1.40588 22.8394L0.406685 9.71438C0.339841 8.84584 0.529654 7.97676 0.943147 7.25813L0.881971 5.625C0.881971 4.63044 1.2125 3.67661 1.80084 2.97335C2.38918 2.27009 3.18714 1.875 4.01917 1.875H9.77908C10.611 1.87521 11.4089 2.27044 11.9971 2.97375L13.2959 4.52625C13.8841 5.22956 14.6819 5.62479 15.5139 5.625ZM2.45998 5.85C2.79567 5.70375 3.15644 5.625 3.53291 5.625H11.9971L10.8881 4.29938C10.594 3.94772 10.1951 3.75011 9.77908 3.75H4.01917C3.60827 3.74991 3.21374 3.94256 2.92041 4.28652C2.62708 4.63048 2.45838 5.09829 2.45057 5.58938L2.45998 5.85Z" fill="white"/>
</g>
<defs>
<clipPath id="clip0_629_17203">
<rect width="25.0976" height="30" fill="white" transform="translate(0.0976562)"/>
</clipPath>
</defs>
</svg>
