<svg width="24" height="24" viewBox="0 0 24 24" fill="none" xmlns="http://www.w3.org/2000/svg">
<path d="M20 9.06989H4C3.59 9.06989 3.25 8.72989 3.25 8.31989V3.99988C3.25 2.47988 4.48 1.24988 6 1.24988H18C19.52 1.24988 20.75 2.47988 20.75 3.99988V8.31989C20.75 8.72989 20.41 9.06989 20 9.06989ZM4.75 7.56989H19.25V3.99988C19.25 3.30988 18.69 2.74988 18 2.74988H6C5.31 2.74988 4.75 3.30988 4.75 3.99988V7.56989Z" fill="#68686C"/>
<path d="M12.5002 22.7501H11.5002C9.98024 22.7501 8.75024 21.5201 8.75024 20.0001V17.9001C8.75024 17.4501 8.51023 17.0301 8.11023 16.8101L5.15027 15.1401C3.97027 14.4801 3.24023 13.2301 3.24023 11.8701V8.31006C3.24023 7.90006 3.58023 7.56006 3.99023 7.56006H19.9902C20.4002 7.56006 20.7402 7.90006 20.7402 8.31006V11.8701C20.7402 13.2201 20.0103 14.4701 18.8303 15.1401L15.8702 16.8101C15.4802 17.0301 15.2302 17.4501 15.2302 17.9001V20.0001C15.2502 21.5201 14.0202 22.7501 12.5002 22.7501ZM4.75024 9.07007V11.8801C4.75024 12.6901 5.19026 13.4401 5.89026 13.8401L8.85022 15.5101C9.71022 16.0001 10.2502 16.9101 10.2502 17.9001V20.0001C10.2502 20.6901 10.8102 21.2501 11.5002 21.2501H12.5002C13.1902 21.2501 13.7502 20.6901 13.7502 20.0001V17.9001C13.7502 16.9101 14.2903 15.9901 15.1503 15.5101L18.1102 13.8401C18.8202 13.4401 19.2502 12.6901 19.2502 11.8801V9.07007H4.75024Z" fill="#68686C"/>
</svg>
