<svg width="25" height="24" viewBox="0 0 25 24" fill="none" xmlns="http://www.w3.org/2000/svg">
<path fill-rule="evenodd" clip-rule="evenodd" d="M5.09046 2.71244C5.39586 2.41324 5.82463 2.21816 6.63431 2.11151C7.4678 2.00172 8.57248 2 10.1564 2H14.5702C16.1541 2 17.2588 2.00172 18.0923 2.11151C18.9019 2.21816 19.3307 2.41324 19.6361 2.71244C19.9415 3.01165 20.1406 3.43172 20.2495 4.22499C20.3615 5.04159 20.3633 6.12387 20.3633 7.67568V15.5135L7.70891 15.5135C6.80633 15.5132 6.19044 15.513 5.66227 15.6517C5.19002 15.7756 4.75196 15.9781 4.36328 16.2442V7.67568C4.36328 6.12387 4.36504 5.04159 4.4771 4.225C4.58596 3.43172 4.78507 3.01165 5.09046 2.71244ZM7.94949 5.78378C7.49243 5.78378 7.1219 6.1468 7.1219 6.59459C7.1219 7.04239 7.49243 7.40541 7.94949 7.40541H16.7771C17.2341 7.40541 17.6047 7.04239 17.6047 6.59459C17.6047 6.1468 17.2341 5.78378 16.7771 5.78378H7.94949ZM7.1219 10.3784C7.1219 9.93058 7.49243 9.56757 7.94949 9.56757H13.4667C13.9238 9.56757 14.2943 9.93058 14.2943 10.3784C14.2943 10.8262 13.9238 11.1892 13.4667 11.1892H7.94949C7.49243 11.1892 7.1219 10.8262 7.1219 10.3784Z" fill="#4285F4"/>
<path d="M7.83669 17.1351C6.75723 17.1351 6.37985 17.1421 6.09066 17.218C5.29693 17.4264 4.66417 18.0044 4.39281 18.7558C4.40958 19.1382 4.43588 19.4746 4.4771 19.775C4.58596 20.5683 4.78507 20.9884 5.09046 21.2876C5.39586 21.5868 5.82463 21.7818 6.63431 21.8885C7.4678 21.9983 8.57248 22 10.1564 22H14.5702C16.1541 22 17.2588 21.9983 18.0923 21.8885C18.9019 21.7818 19.3307 21.5868 19.6361 21.2876C19.8527 21.0753 20.0159 20.8023 20.1313 20.3784H7.94949C7.49243 20.3784 7.1219 20.0154 7.1219 19.5676C7.1219 19.1198 7.49243 18.7568 7.94949 18.7568H20.3337C20.3542 18.2908 20.3605 17.7564 20.3624 17.1351H7.83669Z" fill="#4285F4"/>
</svg>
