<svg width="188" height="199" viewBox="0 0 188 199" fill="none" xmlns="http://www.w3.org/2000/svg">
<mask id="mask0_1045_19105" style="mask-type:alpha" maskUnits="userSpaceOnUse" x="0" y="0" width="188" height="199">
<rect width="188" height="199" rx="21.8201" fill="#FFCCD2"/>
</mask>
<g mask="url(#mask0_1045_19105)">
<path d="M0 21.8201C0 9.76918 9.76917 0 21.8201 0H166.18C178.231 0 188 9.76918 188 21.8201V177.18C188 189.231 178.231 199 166.18 199H21.8201C9.76918 199 0 189.231 0 177.18V21.8201Z" fill="#8FD6E9" fill-opacity="0.5"/>
<path d="M147.822 102.062C143.72 104.9 135.201 108.873 133.944 102.062C132.373 93.5484 137.348 75.1016 147.822 81.7235C158.296 88.3454 197.049 134.226 160.391 133.989C123.732 133.753 111.949 122.401 116.924 102.062C121.899 81.7235 130.017 10.0647 177.673 53.8167C225.329 97.5688 235.279 137.537 208.833 147.47C182.386 157.403 129.493 178.451 105.665 160.477C81.8368 142.503 79.742 49.7962 105.665 28.9844C131.588 8.17264 175.243 10.7356 200.977 19.5245C238.109 32.2056 287.649 90.4738 275.866 115.543" stroke="white" stroke-opacity="0.5" stroke-width="2.18201"/>
<rect x="21" y="149.442" width="28" height="29.7968" rx="4" fill="white" fill-opacity="0.5"/>
<path d="M30.75 154.778C30.75 154.348 30.4142 154 30 154C29.5858 154 29.25 154.348 29.25 154.778V156.416C27.8107 156.535 26.8658 156.828 26.1716 157.548C25.4774 158.268 25.1945 159.248 25.0793 160.741H44.9207C44.8055 159.248 44.5226 158.268 43.8284 157.548C43.1342 156.828 42.1893 156.535 40.75 156.416V154.778C40.75 154.348 40.4142 154 40 154C39.5858 154 39.25 154.348 39.25 154.778V156.347C38.5847 156.333 37.839 156.333 37 156.333H33C32.161 156.333 31.4153 156.333 30.75 156.347V154.778Z" fill="#29284F"/>
<path fill-rule="evenodd" clip-rule="evenodd" d="M25 164.63C25 163.76 25 162.986 25.0129 162.296H44.9871C45 162.986 45 163.76 45 164.63V166.704C45 170.615 45 172.57 43.8284 173.785C42.6569 175 40.7712 175 37 175H33C29.2288 175 27.3431 175 26.1716 173.785C25 172.57 25 170.615 25 166.704V164.63ZM40 166.704C40.5523 166.704 41 166.239 41 165.667C41 165.094 40.5523 164.63 40 164.63C39.4477 164.63 39 165.094 39 165.667C39 166.239 39.4477 166.704 40 166.704ZM40 170.852C40.5523 170.852 41 170.388 41 169.815C41 169.242 40.5523 168.778 40 168.778C39.4477 168.778 39 169.242 39 169.815C39 170.388 39.4477 170.852 40 170.852ZM36 165.667C36 166.239 35.5523 166.704 35 166.704C34.4477 166.704 34 166.239 34 165.667C34 165.094 34.4477 164.63 35 164.63C35.5523 164.63 36 165.094 36 165.667ZM36 169.815C36 170.388 35.5523 170.852 35 170.852C34.4477 170.852 34 170.388 34 169.815C34 169.242 34.4477 168.778 35 168.778C35.5523 168.778 36 169.242 36 169.815ZM30 166.704C30.5523 166.704 31 166.239 31 165.667C31 165.094 30.5523 164.63 30 164.63C29.4477 164.63 29 165.094 29 165.667C29 166.239 29.4477 166.704 30 166.704ZM30 170.852C30.5523 170.852 31 170.388 31 169.815C31 169.242 30.5523 168.778 30 168.778C29.4477 168.778 29 169.242 29 169.815C29 170.388 29.4477 170.852 30 170.852Z" fill="#29284F"/>
<rect x="62" y="149" width="32" height="32" rx="16" fill="white" fill-opacity="0.5"/>
<path d="M82.921 167.888L82.3654 160.798C82.3234 160.265 81.8133 159.81 81.2778 159.827L74.1709 160.074C73.6166 160.094 73.2043 160.558 73.2508 161.111C73.2973 161.664 73.7818 162.096 74.3371 162.077L79.014 161.916L73.4849 168.108C73.1238 168.512 73.1758 169.145 73.599 169.523C74.0222 169.901 74.6572 169.881 75.0182 169.477L80.5473 163.285L80.913 167.949C80.9353 168.227 81.0681 168.473 81.2654 168.649C81.4606 168.824 81.7204 168.928 81.9958 168.92C82.5494 168.903 82.9636 168.441 82.921 167.888Z" fill="black"/>
</g>
</svg>
