<svg width="82" height="161" viewBox="0 0 82 161" fill="none" xmlns="http://www.w3.org/2000/svg">
<path d="M42.0283 58.4202C42.0283 58.4202 61.7724 69.8572 66.4528 89.2252C71.1336 108.593 59.6419 129.025 59.6419 129.025C59.6419 129.025 40.5613 118.056 35.8799 98.688C31.1992 79.3208 42.0283 58.4202 42.0283 58.4202Z" fill="#03DAC5"/>
<path d="M0.76899 51.9541C0.76899 51.9541 2.77935 26.806 16.8262 14.6797C30.8723 2.55339 51.7717 7.16457 51.7717 7.16457C51.7717 7.16457 49.8969 31.4367 35.8507 43.5637C21.8046 55.69 0.76899 51.9541 0.76899 51.9541Z" fill="#47B6D4"/>
<path d="M79 26.5C79 32.8512 73.8512 38 67.5 38C61.1488 38 56 32.8512 56 26.5C56 20.1488 61.1488 15 67.5 15C73.8512 15 79 20.1488 79 26.5Z" fill="#E7E7EC"/>
<path d="M20 94C20 98.9705 15.9705 103 11 103C6.02946 103 2 98.9705 2 94C2 89.0295 6.02946 85 11 85C15.9705 85 20 89.0295 20 94Z" fill="#E7E7EC"/>
<path d="M0 161H29L29 132C12.95 132.165 0 145.08 0 161Z" fill="#03DAC5"/>
<path d="M60 161H29L29 132C46.1569 132.165 60 145.08 60 161Z" fill="#4E61B6"/>
</svg>
