<svg width="20" height="21" viewBox="0 0 20 21" fill="none" xmlns="http://www.w3.org/2000/svg">
<path d="M5.75 0.777778C5.75 0.348223 5.41421 0 5 0C4.58579 0 4.25 0.348223 4.25 0.777778V2.41553C2.81067 2.53505 1.86577 2.82839 1.17157 3.5483C0.477374 4.26821 0.194513 5.2481 0.0792572 6.74074H19.9207C19.8055 5.2481 19.5226 4.26821 18.8284 3.5483C18.1342 2.82839 17.1893 2.53505 15.75 2.41553V0.777778C15.75 0.348223 15.4142 0 15 0C14.5858 0 14.25 0.348223 14.25 0.777778V2.34671C13.5847 2.33333 12.839 2.33333 12 2.33333H8C7.16097 2.33333 6.41527 2.33333 5.75 2.34671V0.777778Z" fill="#334B52"/>
<path fill-rule="evenodd" clip-rule="evenodd" d="M0 10.6296C0 9.75952 0 8.9862 0.012902 8.2963H19.9871C20 8.9862 20 9.75952 20 10.6296V12.7037C20 16.6146 20 18.5701 18.8284 19.785C17.6569 21 15.7712 21 12 21H8C4.22876 21 2.34315 21 1.17157 19.785C0 18.5701 0 16.6146 0 12.7037V10.6296ZM15 12.7037C15.5523 12.7037 16 12.2394 16 11.6667C16 11.0939 15.5523 10.6296 15 10.6296C14.4477 10.6296 14 11.0939 14 11.6667C14 12.2394 14.4477 12.7037 15 12.7037ZM15 16.8519C15.5523 16.8519 16 16.3876 16 15.8148C16 15.2421 15.5523 14.7778 15 14.7778C14.4477 14.7778 14 15.2421 14 15.8148C14 16.3876 14.4477 16.8519 15 16.8519ZM11 11.6667C11 12.2394 10.5523 12.7037 10 12.7037C9.44771 12.7037 9 12.2394 9 11.6667C9 11.0939 9.44771 10.6296 10 10.6296C10.5523 10.6296 11 11.0939 11 11.6667ZM11 15.8148C11 16.3876 10.5523 16.8519 10 16.8519C9.44771 16.8519 9 16.3876 9 15.8148C9 15.2421 9.44771 14.7778 10 14.7778C10.5523 14.7778 11 15.2421 11 15.8148ZM5 12.7037C5.55228 12.7037 6 12.2394 6 11.6667C6 11.0939 5.55228 10.6296 5 10.6296C4.44772 10.6296 4 11.0939 4 11.6667C4 12.2394 4.44772 12.7037 5 12.7037ZM5 16.8519C5.55228 16.8519 6 16.3876 6 15.8148C6 15.2421 5.55228 14.7778 5 14.7778C4.44772 14.7778 4 15.2421 4 15.8148C4 16.3876 4.44772 16.8519 5 16.8519Z" fill="#334B52"/>
</svg>
