<svg width="32" height="32" viewBox="0 0 32 32" fill="none" xmlns="http://www.w3.org/2000/svg">
<rect width="32" height="32" rx="15.3774" fill="white"/>
<path d="M21.0777 19.4854L20.8345 12.2298C20.8159 11.6841 20.3167 11.185 19.7701 11.1654L12.5145 10.9222C11.9485 10.9039 11.5072 11.3473 11.5294 11.9133C11.5516 12.4793 12.0257 12.9535 12.5926 12.9728L17.3673 13.134L11.4491 19.0522C11.0626 19.4387 11.0868 20.0868 11.5009 20.5009C11.9151 20.9151 12.5632 20.9392 12.9497 20.5528L18.8679 14.6346L19.028 19.4082C19.0382 19.6922 19.1623 19.9522 19.3554 20.1453C19.5464 20.3364 19.8065 20.4605 20.0876 20.4715C20.6526 20.4927 21.096 20.0513 21.0777 19.4854Z" fill="black"/>
</svg>
