<svg width="75" height="70" viewBox="0 0 75 70" fill="none" xmlns="http://www.w3.org/2000/svg">
<path fill-rule="evenodd" clip-rule="evenodd" d="M22.126 19.4456C19.9412 21.0199 18.404 22.2779 15.4265 24.8275C9.25921 30.1089 4.91198 38.5614 2.6751 46.2435C1.25331 51.1155 0.657808 58.4924 6.95905 60.1561C13.6102 61.9092 18.9921 55.9392 24.2735 53.0286C26.168 51.979 29.3131 50.1441 31.6504 51.0337C32.9419 51.5212 33.6119 52.9542 33.8836 54.2196C34.8029 58.7976 34.2893 72.2487 42.712 68.5491C45.0531 67.5218 47.0592 65.6274 49.0021 64.0083C52.1546 61.3807 55.2363 58.6934 57.5625 55.2543C59.0513 53.0584 59.5575 50.5759 60.6257 48.205C61.5859 46.076 62.9891 44.1965 64.2397 42.2499C65.8997 39.6445 71.5868 33.1721 66.9046 30.1499C58.8913 24.9726 48.2391 34.1398 40.9775 31.2664C34.4381 28.6611 41.2083 12.5488 31.2149 14.5475C30.3009 14.7294 29.4097 15.0115 28.5575 15.3886C26.6109 16.3154 24.214 17.9382 22.126 19.4456Z" fill="#FFEEDE"/>
<path fill-rule="evenodd" clip-rule="evenodd" d="M64.3553 42.3541C63.5766 43.6239 62.69 44.8243 61.7053 45.942L62.0775 46.2621C63.0785 45.1194 63.9811 43.8943 64.7759 42.5997L64.3553 42.3541Z" fill="#F56C2C"/>
<path fill-rule="evenodd" clip-rule="evenodd" d="M61.6755 43.2436C62.9484 43.6977 64.0612 44.6989 65.0662 45.5885L65.3975 45.2163C64.3404 44.2858 63.1643 43.2511 61.8393 42.7747L61.6755 43.2436Z" fill="#F56C2C"/>
<path fill-rule="evenodd" clip-rule="evenodd" d="M63.2424 42.5588C63.2424 43.6754 63.2982 44.8292 63.4024 45.9495L63.8975 45.9048C63.7933 44.7882 63.7412 43.6716 63.7375 42.5551L63.2424 42.5588Z" fill="#F56C2C"/>
<path fill-rule="evenodd" clip-rule="evenodd" d="M62.457 44.6617C63.1912 44.4419 63.9367 44.2617 64.6902 44.122L64.586 43.6344C63.8081 43.8019 63.0599 43.9433 62.2932 44.189L62.457 44.6617Z" fill="#F56C2C"/>
<path fill-rule="evenodd" clip-rule="evenodd" d="M11.0346 14.7857C9.83986 16.2745 9.02101 18.0089 7.94165 19.5721L8.3511 19.855C9.42302 18.2992 10.2344 16.5685 11.4217 15.0946L11.0346 14.7857Z" fill="#F56C2C"/>
<path fill-rule="evenodd" clip-rule="evenodd" d="M8.1687 16.6169C9.13641 17.231 10.0036 18.0163 11.0122 18.5635L11.2505 18.128C10.253 17.5846 9.38949 16.8067 8.43667 16.1963L8.1687 16.6169Z" fill="#F56C2C"/>
<path fill-rule="evenodd" clip-rule="evenodd" d="M9.34873 15.4296C9.27241 16.6899 9.31356 17.9546 9.47158 19.2073L9.95918 19.1292C9.80729 17.9071 9.76864 16.6736 9.84378 15.4445L9.34873 15.4296Z" fill="#F56C2C"/>
<path fill-rule="evenodd" clip-rule="evenodd" d="M0.814241 56.6612C0.549435 55.7254 0.461104 54.7486 0.553723 53.7804C0.617078 53.0051 0.747858 52.2367 0.944545 51.484C1.07326 51.0035 1.24384 50.5352 1.4544 50.0845C1.86754 49.2136 2.28073 48.7819 2.71992 48.6851C2.92684 48.6647 3.13562 48.6931 3.32955 48.7681C3.52348 48.8431 3.69714 48.9625 3.8365 49.1168C4.524 49.8038 5.08917 50.6031 5.50765 51.4803C5.73047 52.0017 6.02754 52.4881 6.3897 52.9244C6.48273 53.0272 6.59843 53.107 6.72764 53.1574C6.85684 53.2078 6.99599 53.2274 7.13409 53.2147C7.36469 53.1773 7.57927 53.0731 7.75126 52.915C7.92326 52.7569 8.04517 52.5518 8.10183 52.3252C8.23356 51.868 8.3122 51.3971 8.33627 50.922C8.35362 50.4993 8.42879 50.0811 8.55962 49.6789C8.60011 49.5453 8.68147 49.4278 8.79233 49.343C8.90319 49.2582 9.03791 49.2103 9.17743 49.2062L9.15135 48.7112C8.91641 48.7144 8.68855 48.7917 8.5001 48.9321C8.31165 49.0724 8.17229 49.2686 8.10183 49.4928C7.95158 49.9388 7.86383 50.4035 7.84122 50.8736C7.82258 51.3093 7.75397 51.7414 7.63659 52.1614C7.60483 52.3017 7.53309 52.4298 7.43004 52.5302C7.327 52.6306 7.19704 52.699 7.05594 52.7271C6.9832 52.7339 6.91043 52.7141 6.85122 52.6713C6.74656 52.6005 6.65469 52.5123 6.57952 52.4107C6.32837 52.0431 6.11159 51.6531 5.93191 51.2458C5.48321 50.3173 4.88039 49.4717 4.14908 48.7446C3.95131 48.5363 3.70661 48.3782 3.43532 48.2837C3.16403 48.1892 2.87405 48.1609 2.58961 48.2013C2.04993 48.3204 1.47301 48.8005 0.98171 49.8761C0.76111 50.3563 0.58183 50.8543 0.445773 51.3649C0.240504 52.1468 0.103482 52.945 0.0363228 53.7506C-0.0600883 54.7792 0.0358389 55.8167 0.319194 56.8101L0.814241 56.6612Z" fill="#279FF2"/>
<path fill-rule="evenodd" clip-rule="evenodd" d="M65.4905 13.1555C65.8258 12.8806 66.2027 12.6608 66.607 12.5041C67.638 12.132 68.2633 12.132 68.6429 12.426C69.0226 12.72 69.1305 13.2336 69.1863 13.8329C69.2645 14.6517 69.2161 15.6045 69.3463 16.375C69.3956 16.898 69.6466 17.3812 70.0461 17.7223C70.7384 18.2359 71.3674 18.0647 71.9889 17.7707C72.2532 17.6479 72.5138 17.499 72.778 17.3985C72.994 17.3026 73.2322 17.2679 73.4665 17.298C73.7144 17.3596 73.9283 17.5159 74.0621 17.7335C74.2594 17.9977 74.4343 18.2992 74.6278 18.5263L75 18.1913C74.8065 17.9791 74.6502 17.6851 74.4604 17.4469C74.3582 17.2883 74.2257 17.1513 74.0705 17.044C73.9152 16.9367 73.7404 16.8611 73.5559 16.8216C73.2315 16.7743 72.9003 16.8181 72.5994 16.9481C72.324 17.0561 72.0522 17.2087 71.7805 17.3389C71.3227 17.5548 70.8575 17.7111 70.3439 17.3389C70.049 17.0715 69.8678 16.7012 69.8377 16.3042C69.7074 15.5598 69.7632 14.607 69.6851 13.7994C69.6069 12.9917 69.4171 12.3962 68.9407 12.0426C68.4643 11.689 67.7088 11.6034 66.4433 12.0426C65.9932 12.2232 65.5747 12.4745 65.2039 12.787L65.4905 13.1555Z" fill="#279FF2"/>
<path fill-rule="evenodd" clip-rule="evenodd" d="M21.2179 12.9359C20.0194 10.8218 18.8507 8.59239 17.4959 6.57138L17.0828 6.8468C18.4264 8.85665 19.5876 11.0786 20.7786 13.1741L21.2179 12.9359Z" fill="#FFBA16"/>
<path fill-rule="evenodd" clip-rule="evenodd" d="M23.2055 10.8516C22.8184 9.94347 22.4537 9.02539 22.1112 8.09738L21.646 8.2723C21.9921 9.20279 22.3606 10.1333 22.7626 11.0451L23.2055 10.8516Z" fill="#FFBA16"/>
<path fill-rule="evenodd" clip-rule="evenodd" d="M16.3311 9.12834C17.3658 11.0824 18.6499 12.8763 19.8223 14.7447L20.2428 14.4805C19.0741 12.6195 17.7976 10.8404 16.7703 8.89758L16.3311 9.12834Z" fill="#FFBA16"/>
<path fill-rule="evenodd" clip-rule="evenodd" d="M56.4685 59.65C57.1219 60.2554 57.7198 60.918 58.2551 61.63C58.8095 62.3669 59.4648 63.0221 60.2016 63.5766L60.4808 63.1672C59.7825 62.6375 59.1634 62.0108 58.6422 61.3062C58.0841 60.5709 57.4613 59.887 56.7812 59.2629L56.4685 59.65Z" fill="#FFBA16"/>
<path fill-rule="evenodd" clip-rule="evenodd" d="M58.5564 58.7269C58.9286 58.9539 59.2748 59.2033 59.6433 59.4266L59.9001 59.0023C59.5279 58.7827 59.1818 58.5334 58.8207 58.3063L58.5564 58.7269Z" fill="#FFBA16"/>
<path fill-rule="evenodd" clip-rule="evenodd" d="M58.8169 56.892C60.5029 57.8039 62.2596 58.6972 63.8675 59.7467L64.1392 59.3336C62.5202 58.2765 60.7523 57.3758 59.0513 56.4565L58.8169 56.892Z" fill="#FFBA16"/>
<path fill-rule="evenodd" clip-rule="evenodd" d="M57.9498 5.12355C58.4788 4.53314 59.0378 3.97037 59.6247 3.4375L59.3008 3.06531C58.7028 3.60937 58.1327 4.18328 57.5925 4.78484L57.9498 5.12355Z" fill="#FFBA16"/>
<path fill-rule="evenodd" clip-rule="evenodd" d="M22.4015 61.7975C21.7948 62.5717 21.2253 63.3793 20.5889 64.1275L20.9611 64.4513C21.605 63.7069 22.1782 62.8843 22.7849 62.1027L22.4015 61.7975Z" fill="#FFBA16"/>
<path fill-rule="evenodd" clip-rule="evenodd" d="M66.8193 14.7522C66.9837 14.576 67.1746 14.4266 67.385 14.3092C67.4804 14.2532 67.5914 14.2297 67.7013 14.2423C67.7843 14.2655 67.8567 14.3168 67.9061 14.3874C67.9962 14.5118 68.0654 14.6501 68.1108 14.7968C68.3936 15.5971 68.4494 16.8923 68.6132 17.7744C68.6564 18.1134 68.7844 18.436 68.9854 18.7123L69.3576 18.3773C69.2987 18.2996 69.2558 18.2111 69.2311 18.1168C69.1515 17.8465 69.0942 17.5702 69.0599 17.2905C68.9786 16.3976 68.8254 15.5126 68.602 14.6442C68.4308 14.1567 68.1666 13.8403 67.8242 13.7696C67.4818 13.6989 67.0574 13.8477 66.4917 14.4097L66.8193 14.7522Z" fill="#A14DF6"/>
<path fill-rule="evenodd" clip-rule="evenodd" d="M6.60561 49.7757C5.58208 47.442 4.40591 45.7187 2.0127 44.6803L1.81543 45.1344C4.08209 46.117 5.16523 47.7621 6.15154 49.9729L6.60561 49.7757Z" fill="#A14DF6"/>
<path fill-rule="evenodd" clip-rule="evenodd" d="M54.131 27.4216H23.265V24.3399H11.1575V56.9813H54.1235L54.131 27.4216Z" fill="#C8C9D4"/>
<path d="M35.8203 3.33849e-06L12.9326 36.8279L38.3866 52.6469L61.2743 15.819L35.8203 3.33849e-06Z" fill="#77798B"/>
<path d="M53.7063 2.13999L19.9802 29.3924L38.8159 52.7024L72.542 25.45L53.7063 2.13999Z" fill="#EBEBF1"/>
<path fill-rule="evenodd" clip-rule="evenodd" d="M61.307 30.8533H18.341L11.165 56.985H54.1311L61.307 30.8533Z" fill="#FFD36A"/>
</svg>
