<svg width="100" height="94" viewBox="0 0 100 94" fill="none" xmlns="http://www.w3.org/2000/svg">
<path fill-rule="evenodd" clip-rule="evenodd" d="M56.3919 13.4388C45.2465 22.0361 36.1435 19.4246 26.0668 20.8624C19.3858 21.8234 15.6971 27.2004 12.6099 32.1592C11.6147 33.6695 10.7998 35.2756 10.1798 36.9493C4.63871 52.8161 33.9746 47.3511 41.2967 49.185C43.434 49.7279 47.3601 54.3199 48.9036 55.7504C51.0963 57.8484 50.5977 61.6188 49.9407 64.1056C47.1147 75.0723 34.2753 83.9116 49.9407 92.4869C51.0208 93.1282 52.2326 93.555 53.4997 93.7406C54.7667 93.9262 56.0615 93.8665 57.3024 93.5652C69.6035 90.5136 80.7014 75.0723 74.0996 63.8709C70.9333 58.4939 62.4396 52.0826 63.7457 45.2385C65.8355 34.2351 98.8363 29.4817 87.0893 14.6419C85.8926 13.1769 84.4711 11.8819 82.8701 10.798C80.3966 9.12417 77.5522 7.98149 74.5429 7.45298C70.6405 6.70475 60.6902 10.1231 56.3919 13.4388Z" fill="#FFF3E4"/>
<path fill-rule="evenodd" clip-rule="evenodd" d="M85.8386 25.0951C85.8386 24.5737 85.6151 24.0736 85.2173 23.7049C84.8195 23.3362 84.2799 23.1292 83.7172 23.1292H29.0984C28.5358 23.1292 27.9962 23.3362 27.5984 23.7049C27.2005 24.0736 26.9771 24.5737 26.9771 25.0951V56.638C26.9771 57.1594 27.2005 57.6594 27.5984 58.0281C27.9962 58.3968 28.5358 58.604 29.0984 58.604H83.7172C84.2799 58.604 84.8195 58.3968 85.2173 58.0281C85.6151 57.6594 85.8386 57.1594 85.8386 56.638V25.0951Z" fill="#E5E6EA"/>
<path fill-rule="evenodd" clip-rule="evenodd" d="M71.163 53.6231C71.1651 51.8304 70.7861 50.0548 70.0477 48.3978C69.3093 46.7408 68.2258 45.2348 66.8594 43.9657C65.4929 42.6967 63.8701 41.6895 62.0836 41.0017C60.2972 40.3139 58.3821 39.9589 56.4475 39.957C54.511 39.956 52.5933 40.3088 50.8041 40.9954C49.0148 41.6819 47.3892 42.6886 46.0202 43.958C44.6512 45.2273 43.5657 46.7342 42.8259 48.3927C42.086 50.0511 41.7062 51.8285 41.7083 53.6231V58.5819H71.1945L71.163 53.6231Z" fill="#A3AAB8"/>
<path d="M56.4236 37.7563C59.5844 37.7563 62.1467 35.3818 62.1467 32.4526C62.1467 29.5235 59.5844 27.149 56.4236 27.149C53.2628 27.149 50.7004 29.5235 50.7004 32.4526C50.7004 35.3818 53.2628 37.7563 56.4236 37.7563Z" fill="#A3AAB8"/>
<path d="M22.3069 39.018C25.9481 35.5263 28.8215 31.2716 32.5023 27.8166C32.5023 27.8166 33.0089 28.264 33.0801 28.3374C33.4593 28.711 33.8667 29.0591 34.2992 29.379C35.6211 30.3473 37.0934 31.1102 38.4154 32.0785C38.7795 32.3426 39.1437 32.5994 39.492 32.8855C39.6503 33.0248 39.8164 33.4723 39.951 33.3109C41.2729 31.7117 42.3257 29.8265 43.6872 28.176C47.2176 23.8333 51.041 19.6961 54.6427 15.4048" stroke="#F56C2C" stroke-width="0.53" stroke-linejoin="round"/>
<path fill-rule="evenodd" clip-rule="evenodd" d="M95.1002 49.9407H63.073C62.5103 49.9407 61.9706 50.1478 61.5727 50.5165C61.1749 50.8851 60.9514 51.3852 60.9514 51.9066V65.2427C60.9514 65.7641 61.1749 66.2641 61.5727 66.6328C61.9706 67.0014 62.5103 67.2086 63.073 67.2086H90.7148C90.9954 67.2115 91.2737 67.1628 91.5338 67.0653C91.7939 66.9678 92.0308 66.8235 92.2303 66.6406C92.4298 66.4578 92.5882 66.2401 92.6962 66.0001C92.8043 65.7602 92.86 65.5027 92.8599 65.2427V52.9409L95.1002 49.9407Z" fill="#A14DF6"/>
<path d="M56.3525 61.2814H22.2751V63.4821H56.3525V61.2814Z" fill="#6E6F7C"/>
<path d="M56.384 66.0056H22.3066V68.2062H56.384V66.0056Z" fill="#6E6F7C"/>
<path d="M56.384 70.957H22.3066V73.1577H56.384V70.957Z" fill="#6E6F7C"/>
<path fill-rule="evenodd" clip-rule="evenodd" d="M82.0708 76.1506C81.2793 77.8892 80.4163 79.6277 79.5693 81.3516L80.5271 81.755C81.3741 80.0312 82.1975 78.2853 83.0286 76.5541L82.0708 76.1506Z" fill="#F56C2C"/>
<path fill-rule="evenodd" clip-rule="evenodd" d="M78.8728 77.3464C80.4738 78.1745 81.9895 79.137 83.4006 80.2219L84.0812 79.4883C82.6214 78.362 81.0528 77.3626 79.3952 76.5027L78.8728 77.3464Z" fill="#F56C2C"/>
<path fill-rule="evenodd" clip-rule="evenodd" d="M80.5193 76.0626C80.7311 78.1586 81.1069 80.2376 81.6435 82.2832L82.6646 82.0264C82.1398 80.0292 81.772 77.9992 81.5642 75.9526L80.5193 76.0626Z" fill="#F56C2C"/>
<path fill-rule="evenodd" clip-rule="evenodd" d="M20.2328 14.0991C18.4993 16.1457 17.4149 18.5664 15.7605 20.6571L16.6073 21.2366C18.2538 19.1533 19.3384 16.7399 21.064 14.7006L20.2328 14.0991Z" fill="#F56C2C"/>
<path fill-rule="evenodd" clip-rule="evenodd" d="M15.2854 16.2851C16.8686 17.356 18.6021 18.339 20.1931 19.4393L20.8185 18.6544C19.2354 17.5541 17.5256 16.5638 15.9029 15.4928L15.2854 16.2851Z" fill="#F56C2C"/>
<path fill-rule="evenodd" clip-rule="evenodd" d="M17.6602 15.2507C17.6602 17.0993 17.494 19.4173 18.0956 21.2146L19.1009 20.9285C18.531 19.2193 18.7052 17.0113 18.7131 15.2581L17.6602 15.2507Z" fill="#F56C2C"/>
<path fill-rule="evenodd" clip-rule="evenodd" d="M82.8227 72.8276C83.1025 72.5106 83.4434 72.2444 83.828 72.0427C84.0069 71.9452 84.217 71.9088 84.4217 71.94C84.7755 72.0511 85.0754 72.2746 85.2686 72.5709C85.6307 73.0376 85.9561 73.5279 86.2422 74.038C87.5166 76.1286 89.0128 78.3366 92.0287 76.8475L91.5301 75.9819C91.0239 76.2776 90.4197 76.3948 89.8281 76.312C89.3447 76.1912 88.9136 75.935 88.5933 75.5785C87.7991 74.5976 87.0896 73.56 86.4718 72.4755C86.0902 71.7883 85.4385 71.2631 84.6511 71.0084C83.9545 70.869 83.0681 71.1184 82.0391 72.1894L82.8227 72.8276Z" fill="#279FF2"/>
<path fill-rule="evenodd" clip-rule="evenodd" d="M9.83149 66.8491C9.25999 65.6573 8.9068 64.3855 8.78655 63.086C8.64807 62.2055 8.64807 61.311 8.78655 60.4305C9.12693 58.846 9.67312 58.0098 10.3697 57.621C11.1737 57.2848 12.0738 57.1999 12.9344 57.3789C15.23 57.6137 17.7868 58.1125 19.7262 55.6184L18.8712 55.0535C17.2248 57.1735 15.0083 56.6087 13.0531 56.4033C11.9669 56.2076 10.8419 56.336 9.83941 56.7701C8.92118 57.2616 8.13738 58.2372 7.71784 60.2398C7.55955 61.2124 7.55955 62.2014 7.71784 63.174C7.8462 64.5771 8.22622 65.9506 8.84201 67.2379L9.83149 66.8491Z" fill="#279FF2"/>
<path fill-rule="evenodd" clip-rule="evenodd" d="M15.9899 52.0386C16.2511 53.0069 16.1403 53.6451 15.6733 53.9825C15.3695 54.1845 15.0021 54.2877 14.6284 54.2759C13.7692 54.2542 12.9281 54.043 12.1746 53.6598L11.6917 54.5254C12.6011 54.992 13.6206 55.2439 14.6601 55.2589C15.2621 55.267 15.8499 55.0889 16.3304 54.7528C17.0349 54.2319 17.4147 53.2857 17.011 51.8185L15.9899 52.0386Z" fill="#279FF2"/>
<path fill-rule="evenodd" clip-rule="evenodd" d="M70.2207 4.68753C70.5035 3.98486 70.9464 3.34689 71.519 2.81696C72.8884 1.55525 73.9333 1.01974 74.8753 0.968387C75.7885 0.980864 76.668 1.28977 77.3607 1.84132C78.69 2.87868 80.1788 3.72668 81.7778 4.35742C84.2475 5.16433 86.5273 4.35743 88.7754 3.36713L88.3083 2.48685C86.3294 3.38913 84.3108 4.15202 82.126 3.44047C80.6309 2.83192 79.237 2.02918 77.9861 1.05641C77.099 0.36782 75.9769 -0.00652565 74.8198 8.61071e-05C73.7037 0.0661062 72.4452 0.630963 70.7829 2.12742C70.1062 2.75015 69.5823 3.50077 69.2471 4.32809L70.2207 4.68753Z" fill="#279FF2"/>
<path fill-rule="evenodd" clip-rule="evenodd" d="M71.5667 7.13032C73.9415 6.10334 77.2739 6.0153 79.4112 7.62179L80.0762 6.88823C77.6381 5.06168 73.8306 5.09833 71.1155 6.27203L71.5667 7.13032Z" fill="#A14DF6"/>
<path fill-rule="evenodd" clip-rule="evenodd" d="M86.844 70.5095C87.691 72.2114 88.8785 73.3851 90.9603 73.6198L91.0869 72.6515C89.4088 72.4608 88.4906 71.4778 87.802 70.0988L86.844 70.5095Z" fill="#A14DF6"/>
<path fill-rule="evenodd" clip-rule="evenodd" d="M12.6573 58.692C12.0412 59.1192 11.5807 59.7106 11.3373 60.3871C11.094 61.0636 11.0795 61.7928 11.2958 62.4772C11.6592 63.7727 12.3543 64.9679 13.3223 65.9615L14.1138 65.3087C13.2629 64.4426 12.6517 63.3979 12.3328 62.2644C12.1686 61.7628 12.173 61.2268 12.3455 60.7275C12.518 60.2283 12.8504 59.7895 13.2985 59.4696L12.6573 58.692Z" fill="#A14DF6"/>
<path fill-rule="evenodd" clip-rule="evenodd" d="M40.0459 79.7744C39.8005 81.9751 39.6423 84.2198 39.5156 86.4425L40.5683 86.4938C40.6949 84.2931 40.8534 82.0924 41.0988 79.8918L40.0459 79.7744Z" fill="#FFBA16"/>
<path fill-rule="evenodd" clip-rule="evenodd" d="M44.7559 82.0117C45.025 82.9507 45.2071 83.8823 45.4288 84.8286L46.4577 84.6086C46.2281 83.6549 46.0462 82.7086 45.777 81.755L44.7559 82.0117Z" fill="#FFBA16"/>
<path fill-rule="evenodd" clip-rule="evenodd" d="M45.6107 13.3141C45.0645 10.6293 44.5657 7.93715 44.0908 5.245L43.054 5.39901C43.5236 8.11317 44.0302 10.8176 44.5737 13.5122L45.6107 13.3141Z" fill="#FFBA16"/>
<path fill-rule="evenodd" clip-rule="evenodd" d="M49.1808 12.2725C48.9829 10.8787 48.8562 9.47763 48.7533 8.07654L47.7004 8.14988C47.8113 9.56564 47.93 10.9961 48.1358 12.4045L49.1808 12.2725Z" fill="#FFBA16"/>
<path fill-rule="evenodd" clip-rule="evenodd" d="M0.411636 50.146C3.83696 48.8927 7.12834 47.3456 10.243 45.5246L9.6572 44.7104C6.59971 46.5005 3.36624 48.0184 0 49.2438L0.411636 50.146Z" fill="#FFBA16"/>
<path fill-rule="evenodd" clip-rule="evenodd" d="M6.19027 44.4316C7.4971 43.8919 8.84039 43.4312 10.2115 43.0525L9.87895 42.1282C8.46693 42.5184 7.08401 42.9938 5.73901 43.5513L6.19027 44.4316Z" fill="#FFBA16"/>
<path fill-rule="evenodd" clip-rule="evenodd" d="M91.0234 32.4746C93.9523 32.4746 97.1345 32.5333 100 31.8878L99.7466 30.9341C96.9682 31.5723 93.8652 31.477 91.0393 31.499L91.0234 32.4746Z" fill="#FFBA16"/>
<path fill-rule="evenodd" clip-rule="evenodd" d="M95.0209 28.6235C96.0632 28.382 97.1207 28.2007 98.1872 28.0807L98.0131 27.1124C96.8992 27.2442 95.7945 27.4352 94.7043 27.6845L95.0209 28.6235Z" fill="#FFBA16"/>
</svg>
