<svg width="75" height="76" viewBox="0 0 75 76" fill="none" xmlns="http://www.w3.org/2000/svg">
<path fill-rule="evenodd" clip-rule="evenodd" d="M26.3562 17.4575C20.2155 23.1716 8.29891 36.727 12.0526 48.0685C12.8998 50.641 14.1181 53.0157 16.9998 53.5908C23.054 54.8276 33.5545 45.0074 37.6916 48.6807C42.0204 52.5086 35.4653 81.2521 51.4078 72.9469C57.2146 69.9167 64.7158 51.5749 59.478 45.1187C57.1095 42.2122 48.2601 39.5902 48.5013 35.2923C48.6188 33.2639 49.8062 31.5819 51.0368 30.0482C54.5184 25.7194 67.3997 18.5645 61.2836 11.5889C59.3357 9.37498 56.5591 9.15238 53.801 9.60381C51.344 10.0484 48.9219 10.6684 46.5534 11.459C43.1954 12.5474 32.3547 11.8795 26.3562 17.4575Z" fill="#FFF0E3"/>
<path fill-rule="evenodd" clip-rule="evenodd" d="M17.9214 75.0433L21.5699 70.7144L20.9515 70.1826C19.7394 71.6256 18.5233 73.0685 17.303 74.5114L17.9214 75.0433Z" fill="#FFBA16"/>
<path fill-rule="evenodd" clip-rule="evenodd" d="M5.07696 62.5639C6.56113 61.4013 8.31118 60.7087 9.83863 59.645L9.36245 58.9709C7.82263 60.0655 6.06636 60.7458 4.56982 61.9146L5.07696 62.5639Z" fill="#FFBA16"/>
<path fill-rule="evenodd" clip-rule="evenodd" d="M10.0181 62.3351C10.587 62.0135 11.1807 61.7167 11.7435 61.3827L11.3168 60.6777C10.7664 61.0117 10.179 61.2961 9.61621 61.6115L10.0181 62.3351Z" fill="#FFBA16"/>
<path fill-rule="evenodd" clip-rule="evenodd" d="M55.6502 7.42084C57.557 5.01754 59.623 2.74495 61.8342 0.618404L61.2529 0C59.0136 2.1523 56.9227 4.45393 54.9946 6.88903L55.6502 7.42084Z" fill="#FFBA16"/>
<path fill-rule="evenodd" clip-rule="evenodd" d="M59.1132 7.90938C59.6636 7.48268 60.2078 7.05601 60.7459 6.61694L60.2325 5.99854C59.6945 6.43142 59.1504 6.85813 58.6062 7.28483L59.1132 7.90938Z" fill="#FFBA16"/>
<path fill-rule="evenodd" clip-rule="evenodd" d="M62.2113 9.36262L63.0957 8.81223L62.6689 8.10724C62.3659 8.28658 62.0505 8.4783 61.7722 8.66382L62.2113 9.36262Z" fill="#FFBA16"/>
<path fill-rule="evenodd" clip-rule="evenodd" d="M0 25.8369C2.6344 26.981 4.94723 28.6692 7.42084 30.1224L7.84131 29.4174C5.3677 27.9395 3.00547 26.2389 0.340152 25.0886L0 25.8369Z" fill="#FFBA16"/>
<path fill-rule="evenodd" clip-rule="evenodd" d="M5.16357 25.1134C6.09736 25.9853 7.01883 26.9686 7.99591 27.7602L8.50304 27.1047C7.5136 26.3378 6.64784 25.3669 5.72642 24.5135L5.16357 25.1134Z" fill="#FFBA16"/>
<path fill-rule="evenodd" clip-rule="evenodd" d="M59.1316 66.9979C60.649 68.8662 62.2632 70.6537 63.9675 72.3532L64.586 71.7843C62.8949 70.1006 61.2931 68.3295 59.7871 66.4784L59.1316 66.9979Z" fill="#FFBA16"/>
<path fill-rule="evenodd" clip-rule="evenodd" d="M60.4861 65.7363C61.2529 66.4475 62.0134 67.1463 62.8297 67.7956L63.3492 67.1772C62.5453 66.5588 61.797 65.8538 61.0488 65.1612L60.4861 65.7363Z" fill="#FFBA16"/>
<path fill-rule="evenodd" clip-rule="evenodd" d="M58.501 58.6185C58.8041 57.5099 59.4102 56.5077 60.2511 55.7244C60.4475 55.5174 60.6862 55.3551 60.9508 55.2484C61.2154 55.1418 61.4997 55.0932 61.7848 55.106C62.201 55.1758 62.5772 55.3958 62.8422 55.7244C63.1281 56.0778 63.3386 56.4861 63.4606 56.9241C63.7327 57.7342 63.9244 58.6803 64.215 59.3977C64.3016 59.7268 64.4565 60.034 64.6696 60.2993C64.8827 60.5646 65.1492 60.782 65.4518 60.9375C66.0084 61.1539 66.7815 61.055 67.8513 60.3191L67.3813 59.6451C66.6393 60.1583 66.1444 60.3253 65.7487 60.1769C65.3529 60.0285 65.1674 59.6141 64.9757 59.1132C64.6912 58.3712 64.5057 57.4374 64.2336 56.6396C64.0725 56.0897 63.8011 55.5784 63.4358 55.1369C63.0368 54.6679 62.4808 54.3601 61.8714 54.2711C61.4691 54.2465 61.0661 54.3083 60.6896 54.4523C60.3131 54.5963 59.9717 54.8192 59.6884 55.106C58.7264 56.0113 58.033 57.1648 57.6848 58.4392L58.501 58.6185Z" fill="#279FF2"/>
<path fill-rule="evenodd" clip-rule="evenodd" d="M11.6198 44.9889C11.0818 42.2617 13.6543 39.8437 16.2948 40.0416C17.3612 40.2113 18.3855 40.5828 19.3127 41.1362C19.6219 41.3355 19.9716 41.4633 20.3364 41.5104C20.7011 41.5575 21.0718 41.5226 21.4214 41.4083C22.0398 41.1486 22.5902 40.4374 23.1097 38.8605L22.3243 38.6069C22.1671 39.1285 21.9471 39.629 21.6689 40.0973C21.5305 40.3347 21.3292 40.5294 21.0875 40.66C20.6608 40.8517 20.1971 40.66 19.6653 40.3941C18.6473 39.7954 17.5243 39.3966 16.3567 39.2191C13.2029 38.978 10.1727 41.8845 10.7911 45.1373L11.6198 44.9889Z" fill="#279FF2"/>
<path fill-rule="evenodd" clip-rule="evenodd" d="M59.3481 12.6958C59.7465 12.2756 60.2593 11.9814 60.8231 11.8495C61.387 11.7176 61.977 11.7538 62.5204 11.9538C63.7572 12.263 64.9941 12.7824 66.6143 12.4052L66.4288 11.6013C64.9755 11.9414 63.8253 11.4343 62.7184 11.156C62.0421 10.9155 61.3106 10.8763 60.6125 11.0431C59.9144 11.2099 59.2798 11.5757 58.7854 12.096L59.3481 12.6958Z" fill="#279FF2"/>
<path fill-rule="evenodd" clip-rule="evenodd" d="M60.4366 14.5882C62.4031 13.809 63.8934 14.5016 65.3466 15.4168C66.9607 16.431 68.5315 17.6988 70.5289 17.9399L70.6216 17.1236C68.7664 16.901 67.3008 15.6704 65.7857 14.718C64.116 13.6668 62.3969 12.9308 60.1335 13.8213L60.4366 14.5882Z" fill="#A14DF6"/>
<path fill-rule="evenodd" clip-rule="evenodd" d="M66.6948 57.5424C65.9836 56.3675 65.8599 55.0688 65.6249 53.7083L64.8149 53.8568C65.0685 55.2791 65.2292 56.7076 65.9898 57.9691L66.6948 57.5424Z" fill="#A14DF6"/>
<path fill-rule="evenodd" clip-rule="evenodd" d="M13.8769 38.341C15.1137 37.2341 16.2083 37.4814 17.2781 37.9823C18.5458 38.6007 19.8197 39.448 21.2606 39.417V38.5946C20.6414 38.5848 20.0325 38.4347 19.4797 38.1555C18.8613 37.871 18.2429 37.5371 17.6244 37.2341C16.2701 36.6157 14.9097 36.3312 13.3328 37.7226L13.8769 38.341Z" fill="#A14DF6"/>
<path fill-rule="evenodd" clip-rule="evenodd" d="M74.363 45.2177C73.3179 46.5039 72.316 47.8211 71.3142 49.1383L71.9698 49.6393C72.9654 48.3282 73.9611 47.0172 75 45.7371L74.363 45.2177Z" fill="#F56C2C"/>
<path fill-rule="evenodd" clip-rule="evenodd" d="M71.1843 46.6215C72.386 47.2497 73.44 48.1266 74.2763 49.194L74.8947 48.656C73.9777 47.5011 72.8271 46.5528 71.5183 45.8732L71.1843 46.6215Z" fill="#F56C2C"/>
<path fill-rule="evenodd" clip-rule="evenodd" d="M72.446 45.063C72.4363 46.6787 72.5791 48.2916 72.8727 49.8804L73.6828 49.7258C73.3967 48.1904 73.258 46.6311 73.2685 45.0692L72.446 45.063Z" fill="#F56C2C"/>
<path fill-rule="evenodd" clip-rule="evenodd" d="M7.07441 7.38373C5.8376 9.06579 4.60073 10.7664 3.2959 12.4114L3.9143 12.9246C5.20677 11.2673 6.45602 9.56669 7.70519 7.87844L7.07441 7.38373Z" fill="#F56C2C"/>
<path fill-rule="evenodd" clip-rule="evenodd" d="M3.26514 8.41027C4.35353 9.64708 5.19457 11.0323 6.22112 12.3001L6.83953 11.7806C5.80679 10.5005 4.98427 9.09055 3.85878 7.85992L3.26514 8.41027Z" fill="#F56C2C"/>
<path fill-rule="evenodd" clip-rule="evenodd" d="M4.99671 7.7486C4.75554 9.36263 4.70001 10.9828 4.5083 12.5969L5.33067 12.6958C5.5162 11.0818 5.57186 9.47391 5.80686 7.86606L4.99671 7.7486Z" fill="#F56C2C"/>
<path fill-rule="evenodd" clip-rule="evenodd" d="M3.15381 10.5561C4.66271 10.5561 6.18403 10.8777 7.68056 11.0323L7.76104 10.2098C6.23976 10.0614 4.66891 9.75838 3.16619 9.73364L3.15381 10.5561Z" fill="#F56C2C"/>
<path d="M14.019 12.9865V22.6706C14.019 23.8536 14.2522 25.0249 14.7051 26.1177C15.158 27.2106 15.8217 28.2034 16.6584 29.0396C17.4952 29.8758 18.4885 30.5389 19.5817 30.991C20.6748 31.4431 21.8463 31.6754 23.0292 31.6746H59.0884C61.2665 31.6779 63.3543 32.545 64.8939 34.0858C66.4335 35.6265 67.299 37.7151 67.3006 39.8932C67.3006 42.0713 66.4355 44.1601 64.8954 45.7002C63.3553 47.2404 61.2664 48.1056 59.0884 48.1056H46.2749" stroke="black" stroke-width="0.53" stroke-linecap="round" stroke-linejoin="round"/>
<path d="M37.9948 48.1241H22.0771C19.9449 48.1241 17.9001 48.9711 16.3925 50.4788C14.8848 51.9864 14.0378 54.0313 14.0378 56.1634V56.1634C14.0378 58.2955 14.8848 60.3403 16.3925 61.848C17.9001 63.3556 19.9449 64.2026 22.0771 64.2026H55.6874" stroke="black" stroke-width="0.53" stroke-linecap="round" stroke-linejoin="round"/>
<path d="M42.1195 52.1685C44.4147 52.1685 46.2752 50.3079 46.2752 48.0128C46.2752 45.7177 44.4147 43.8572 42.1195 43.8572C39.8244 43.8572 37.9639 45.7177 37.9639 48.0128C37.9639 50.3079 39.8244 52.1685 42.1195 52.1685Z" fill="white" stroke="black" stroke-width="0.53" stroke-linecap="round" stroke-linejoin="round"/>
<path fill-rule="evenodd" clip-rule="evenodd" d="M39.0027 3.63H41.6619C41.6619 3.63 52.5397 10.4325 52.5397 17.1731C52.5397 25.571 42.1133 39.0645 42.1133 39.0645H39.0213C39.0213 39.0645 25.4783 28.9042 25.4783 17.1731C25.4598 8.70093 31.5262 3.63 39.0027 3.63ZM39.0027 9.81404C40.5208 9.81404 42.0049 10.2643 43.2671 11.1078C44.5293 11.9514 45.5129 13.1503 46.0935 14.553C46.6742 15.9557 46.8259 17.4991 46.5292 18.9879C46.2326 20.4768 45.5011 21.8442 44.4272 22.9172C43.3533 23.9903 41.9853 24.7207 40.4962 25.0161C39.0071 25.3115 37.4639 25.1587 36.0617 24.5769C34.6595 23.9951 33.4613 23.0105 32.6188 21.7476C31.7763 20.4847 31.3272 19.0004 31.3284 17.4823C31.3317 15.449 32.1416 13.5002 33.5805 12.0636C35.0194 10.6271 36.9695 9.82023 39.0027 9.82023V9.81404Z" fill="black"/>
<path fill-rule="evenodd" clip-rule="evenodd" d="M42.1194 3.63C45.7102 3.63164 49.1533 5.05923 51.6918 7.59886C54.2303 10.1385 55.6563 13.5823 55.6563 17.1731C55.6563 28.0322 42.1194 39.0645 42.1194 39.0645C42.1194 39.0645 28.5764 28.9042 28.5764 17.1731C28.5764 8.70093 34.6429 3.63 42.1194 3.63ZM42.1194 9.81404C43.6375 9.81404 45.1216 10.2643 46.3838 11.1078C47.6459 11.9514 48.6295 13.1503 49.2102 14.553C49.7909 15.9557 49.9425 17.4991 49.6459 18.9879C49.3493 20.4768 48.6178 21.8442 47.5439 22.9172C46.47 23.9903 45.102 24.7207 43.6129 25.0161C42.1238 25.3115 40.5806 25.1587 39.1784 24.5769C37.7762 23.9951 36.578 23.0105 35.7355 21.7476C34.8929 20.4847 34.4438 19.0004 34.4451 17.4823C34.4483 15.449 35.2583 13.5002 36.6972 12.0636C38.1361 10.6271 40.0862 9.82023 42.1194 9.82023V9.81404Z" fill="#C93F45"/>
</svg>
