<svg width="303" height="333" viewBox="0 0 303 333" fill="none" xmlns="http://www.w3.org/2000/svg">
<g opacity="0.3" filter="url(#filter0_i_455_17156)">
<path fill-rule="evenodd" clip-rule="evenodd" d="M112.322 70.2129C112.665 60.5983 138.309 62.7655 148.201 63.693C158.093 64.6206 158.991 51.4493 150.456 49.4915C141.921 47.5337 126.444 48.5441 118.425 46.7368C110.406 44.9296 120.55 35.2372 109.623 34.069C98.6969 32.9008 76.1038 33.9824 69.3684 33.745C58.7888 33.3722 53.3608 45.8144 71.8957 46.379C77.0071 46.5346 78.0325 57.588 60.7794 54.5518C49.9523 52.6465 28.7093 52.6025 24.2901 57.467C21.7547 60.2581 22.6333 67.7566 26.9923 71.8973C30.2304 74.9732 40.5281 75.573 44.5621 76.2839C54.0261 77.9522 52.1553 86.9041 48.9282 88.7473C41.2918 93.109 20.3335 84.8772 19.7717 96.8544C19.5234 102.147 38.5929 103.001 46.412 102.937C65.5891 102.778 78.1893 104.447 79.0735 98.0568C79.9612 91.6413 67.1568 95.9715 67.7881 88.0844C68.118 83.963 67.2338 75.2052 75.4487 75.6649C64.2016 75.0355 111.858 83.1984 112.322 70.2129Z" fill="url(#paint0_linear_455_17156)"/>
</g>
<g opacity="0.2" filter="url(#filter1_i_455_17156)">
<path fill-rule="evenodd" clip-rule="evenodd" d="M254.406 126.82C254.38 117.2 280.089 118.428 290.01 118.993C299.93 119.558 300.323 106.363 291.719 104.719C283.115 103.074 267.688 104.65 259.605 103.138C251.522 101.625 261.287 91.5683 250.324 90.8005C239.36 90.0328 216.824 91.94 210.085 91.9492C199.498 91.9637 194.551 104.596 213.094 104.482C218.208 104.451 219.657 115.459 202.299 113.056C191.407 111.548 170.177 112.281 165.947 117.303C163.521 120.185 164.686 127.646 169.201 131.625C172.554 134.58 182.868 134.803 186.926 135.366C196.448 136.686 194.921 145.701 191.767 147.661C184.303 152.299 163.044 144.839 162.942 156.828C162.896 162.126 181.985 162.283 189.796 161.932C208.954 161.072 221.609 162.279 222.248 155.861C222.889 149.417 210.26 154.213 210.588 146.308C210.76 142.178 209.541 133.458 217.768 133.617C206.504 133.4 254.44 139.814 254.406 126.82Z" fill="url(#paint1_linear_455_17156)"/>
</g>
<g opacity="0.4">
<path fill-rule="evenodd" clip-rule="evenodd" d="M73.9214 48.3724C73.9214 31.8038 87.3528 18.3724 103.921 18.3724H226.766C243.335 18.3724 256.766 31.8039 256.766 48.3724V96.8548C256.766 109.857 248.39 121.38 236.021 125.391L112.546 165.438L100.673 145.32L82.7456 127.456C77.0966 121.827 73.9214 114.181 73.9214 106.206V48.3724Z" fill="url(#paint2_linear_455_17156)"/>
<path fill-rule="evenodd" clip-rule="evenodd" d="M73.9214 48.3724C73.9214 31.8038 87.3528 18.3724 103.921 18.3724H226.766C243.335 18.3724 256.766 31.8039 256.766 48.3724V96.8548C256.766 109.857 248.39 121.38 236.021 125.391L112.546 165.438L100.673 145.32L82.7456 127.456C77.0966 121.827 73.9214 114.181 73.9214 106.206V48.3724Z" fill="url(#paint3_linear_455_17156)"/>
</g>
<rect x="80.2397" y="25.3747" width="169.968" height="86.8577" rx="13" fill="url(#paint4_radial_455_17156)"/>
<ellipse opacity="0.6" cx="165.766" cy="68.9801" rx="21.8725" ry="21.3614" fill="#F1F6FF"/>
<path opacity="0.4" fill-rule="evenodd" clip-rule="evenodd" d="M167.398 58.6003C167.398 57.9614 166.93 57.505 166.276 57.505C165.622 57.505 165.108 57.9614 165.108 58.6003V62.8906C165.108 63.5295 165.622 64.0316 166.276 64.0316C166.93 64.0316 167.398 63.5295 167.398 62.8906V58.6003ZM163.565 63.3926L160.995 59.9239C160.621 59.4219 159.92 59.3306 159.406 59.6957C158.892 60.0608 158.799 60.7454 159.173 61.2475L161.743 64.7162C161.977 65.0357 162.257 65.1726 162.631 65.1726C163.565 65.1726 164.126 64.1228 163.565 63.3926ZM155.901 66.8156C155.294 66.6331 154.967 65.9941 155.154 65.4008C155.34 64.8075 155.995 64.488 156.602 64.6705L160.761 65.9941C161.369 66.1767 161.696 66.8156 161.509 67.409C161.369 67.8654 160.855 68.1849 160.388 68.1849C160.291 68.1849 160.239 68.1634 160.171 68.1351L160.171 68.1351C160.139 68.1222 160.104 68.1079 160.06 68.0936L155.901 66.8156ZM160.761 71.8361C161.369 71.6535 161.696 71.0146 161.509 70.4212C161.322 69.8279 160.668 69.5084 160.06 69.691L155.901 71.0146C155.294 71.1971 154.967 71.8361 155.154 72.4294C155.294 72.8858 155.761 73.2053 156.228 73.2053C156.369 73.2053 156.462 73.2053 156.602 73.1597L160.761 71.8361ZM163.332 72.8858C163.846 73.251 163.939 73.9356 163.565 74.4376L160.995 77.9063C160.761 78.2258 160.434 78.3627 160.06 78.3627C159.126 78.3627 158.612 77.313 159.173 76.5827L161.743 73.114C162.117 72.612 162.818 72.5207 163.332 72.8858ZM167.398 74.9397C167.398 74.3007 166.93 73.7986 166.276 73.7986C165.622 73.7986 165.108 74.3007 165.108 74.9397V79.1842C165.108 79.8232 165.622 80.3253 166.276 80.3253C166.93 80.3253 167.398 79.8232 167.398 79.1842V74.9397ZM170.809 73.114L173.379 76.5827C173.94 77.313 173.379 78.3627 172.445 78.3627C172.071 78.3627 171.79 78.2258 171.557 77.9063L168.986 74.4376C168.613 73.9356 168.706 73.251 169.22 72.8858C169.734 72.5207 170.435 72.612 170.809 73.114ZM177.398 72.4294C177.585 71.8361 177.258 71.1971 176.651 71.0146L172.491 69.691C171.884 69.5084 171.23 69.8279 171.043 70.4212C170.856 71.0146 171.183 71.6535 171.79 71.8361L175.95 73.1597C176.09 73.2053 176.137 73.2053 176.277 73.2053C176.744 73.2053 177.258 72.8858 177.398 72.4294ZM171.043 67.409C170.856 66.8156 171.183 66.1767 171.79 65.9941L175.95 64.6705C176.557 64.488 177.211 64.8075 177.398 65.4008C177.585 65.9941 177.258 66.6331 176.651 66.8156L172.491 68.0936C172.462 68.1031 172.435 68.1126 172.409 68.1217L172.409 68.1217C172.31 68.1563 172.228 68.1849 172.118 68.1849C171.65 68.1849 171.183 67.8654 171.043 67.409ZM168.986 63.3926C168.426 64.1228 168.94 65.1726 169.874 65.1726C170.248 65.1726 170.575 65.0357 170.809 64.7162L173.379 61.2475C173.753 60.7454 173.66 60.0608 173.146 59.6957C172.632 59.3306 171.931 59.4219 171.557 59.9239L168.986 63.3926Z" fill="url(#paint5_angular_455_17156)"/>
<g opacity="0.205804">
<path fill-rule="evenodd" clip-rule="evenodd" d="M216.313 219.976C214.501 221.598 207.448 218.537 204.585 213.649C201.723 208.76 206.838 206.915 199.697 199.141C192.557 191.366 188.012 188.419 192.027 175.335C196.042 162.25 190.045 155.119 197.738 151.592C205.43 148.065 210.097 159.256 209.385 169.181C208.672 179.107 210.528 181.13 218.094 179.973C225.659 178.817 219.525 193.475 219.582 196.651C219.639 199.827 224.343 205.647 223.468 210.101C222.593 214.556 218.124 218.355 216.313 219.976Z" fill="url(#paint6_linear_455_17156)"/>
<path d="M211.636 206.217C211.592 203.779 212.087 196.174 215.434 191.49" stroke="url(#paint7_linear_455_17156)" stroke-width="6" stroke-linecap="round"/>
<path d="M206.021 192.085C205.977 189.648 198.941 188.056 195.429 183.489" stroke="url(#paint8_linear_455_17156)" stroke-width="6" stroke-linecap="round"/>
<path d="M220.649 231.323C220.63 230.286 218.718 225.642 216.874 220.255C211.1 203.387 201.909 182.651 201.65 168.178" stroke="url(#paint9_linear_455_17156)" stroke-width="6" stroke-linecap="round"/>
</g>
<path d="M68.6476 238.296C67.0559 225.633 72.9662 185.143 84.8974 161.945" stroke="url(#paint10_linear_455_17156)" stroke-width="6" stroke-linecap="round"/>
<ellipse cx="3.75604" cy="11.7105" rx="3.75604" ry="11.7105" transform="matrix(0.805324 -0.592835 0.610777 0.791803 61.5444 152.402)" fill="url(#paint11_linear_455_17156)"/>
<ellipse cx="3.70217" cy="11.8783" rx="3.70217" ry="11.8783" transform="matrix(0.16004 0.98711 -0.988241 0.152906 105.779 163.164)" fill="url(#paint12_linear_455_17156)"/>
<ellipse cx="3.70097" cy="11.8819" rx="3.70097" ry="11.8819" transform="matrix(0.106972 0.994262 -0.99477 0.102139 101.158 181.297)" fill="url(#paint13_linear_455_17156)"/>
<ellipse cx="3.70097" cy="11.8819" rx="3.70097" ry="11.8819" transform="matrix(0.106973 0.994262 -0.99477 0.102139 97.4912 198.191)" fill="url(#paint14_linear_455_17156)"/>
<ellipse cx="3.77084" cy="11.6636" rx="3.77084" ry="11.6636" transform="matrix(0.902764 0.430135 -0.446689 0.894689 92.8491 136.89)" fill="url(#paint15_linear_455_17156)"/>
<ellipse cx="3.73943" cy="11.7628" rx="3.73943" ry="11.7628" transform="matrix(0.677732 -0.735309 0.750861 0.66046 53.2515 173.231)" fill="url(#paint16_linear_455_17156)"/>
<ellipse cx="3.73046" cy="11.7908" rx="3.73046" ry="11.7908" transform="matrix(0.596772 -0.802411 0.815476 0.578791 48.0049 192.988)" fill="url(#paint17_linear_455_17156)"/>
<g opacity="0.2">
<path d="M61.4191 243.024C54.918 234.895 41.755 204.431 40.1353 183.501" stroke="#A1B8E3" stroke-width="6" stroke-linecap="round"/>
<ellipse cx="3.00152" cy="9.57824" rx="3.00152" ry="9.57824" transform="matrix(0.382184 -0.924086 0.930169 0.367131 19.8833 186.387)" fill="#A1B8E3"/>
<ellipse cx="3.02092" cy="9.51799" rx="3.02092" ry="9.51799" transform="matrix(0.651578 0.758581 -0.773376 0.633947 55.1265 175.851)" fill="#A1B8E3"/>
<ellipse cx="3.0173" cy="9.52928" rx="3.0173" ry="9.52928" transform="matrix(0.610777 0.791803 -0.805324 0.592835 59.6533 190.297)" fill="#A1B8E3"/>
<ellipse cx="3.0173" cy="9.52928" rx="3.0173" ry="9.52928" transform="matrix(0.610776 0.791803 -0.805324 0.592836 64.3135 203.497)" fill="#A1B8E3"/>
<ellipse cx="3.0617" cy="9.38879" rx="3.0617" ry="9.38879" transform="matrix(0.996368 -0.085157 0.0892007 0.996014 34.9663 162.902)" fill="#A1B8E3"/>
<ellipse cx="2.99409" cy="9.60109" rx="2.99409" ry="9.60109" transform="matrix(0.195151 -0.980773 0.982444 0.186556 23.0142 204.195)" fill="#A1B8E3"/>
<ellipse cx="2.99203" cy="9.60741" rx="2.99203" ry="9.60741" transform="matrix(0.0892007 -0.996014 0.996368 0.0851569 27.7998 220.021)" fill="#A1B8E3"/>
</g>
<ellipse opacity="0.2" cx="243.575" cy="240.372" rx="23.1168" ry="1.27586" fill="#8699BF"/>
<g opacity="0.821875">
<path fill-rule="evenodd" clip-rule="evenodd" d="M240.968 222.988C237.67 224.388 229.399 216.868 227.822 208.768C226.245 200.668 234.225 200.497 228.134 186.41C222.044 172.323 217.19 166.128 229.132 149.885C241.074 133.643 236.251 120.979 248.621 119.678C260.99 118.378 261.99 136.042 256.161 149.449C250.333 162.857 251.915 166.521 262.951 168.443C273.988 170.365 258.345 187.8 256.874 192.222C255.403 196.645 259.075 206.892 255.691 212.65C252.307 218.409 244.267 221.587 240.968 222.988Z" fill="url(#paint18_linear_455_17156)"/>
<path d="M241.208 201.763C242.337 198.369 246.732 188.072 253.65 183.146" stroke="url(#paint19_linear_455_17156)" stroke-width="6" stroke-linecap="round"/>
<path d="M240.329 179.587C241.458 176.193 232.495 170.713 229.862 162.756" stroke="url(#paint20_linear_455_17156)" stroke-width="6" stroke-linecap="round"/>
<path d="M241.434 240.713C241.914 239.268 241.534 231.95 241.609 223.635C241.847 197.597 239.24 164.613 245.944 144.458" stroke="url(#paint21_linear_455_17156)" stroke-width="6" stroke-linecap="round"/>
</g>
<path opacity="0.5" fill-rule="evenodd" clip-rule="evenodd" d="M102.934 273.766L206.103 283.698C205.256 285.961 203.055 287.427 200.641 287.337L102.934 283.698" fill="url(#paint22_linear_455_17156)"/>
<path opacity="0.5" fill-rule="evenodd" clip-rule="evenodd" d="M63.7524 286.781L162.369 290.726V296.164L63.4912 298.735" fill="url(#paint23_linear_455_17156)"/>
<path fill-rule="evenodd" clip-rule="evenodd" d="M155.679 286.437V281.966H162.993V287.445L158.091 288.09L155.679 286.437Z" fill="url(#paint24_linear_455_17156)"/>
<path fill-rule="evenodd" clip-rule="evenodd" d="M194.782 271.503L190.942 268.55L195.762 262.317L199.301 266.459L194.782 271.503Z" fill="url(#paint25_linear_455_17156)"/>
<path fill-rule="evenodd" clip-rule="evenodd" d="M178.113 216.641C178.113 216.641 179.823 236.663 181.035 239.635C182.248 242.606 196.95 262.409 196.95 262.409C196.95 262.409 196.191 264.752 194.616 266.463C193.136 268.07 191.597 268.999 190.412 269.717C187.531 267.477 168.749 248.684 168.749 248.684C168.749 248.684 167.163 238.405 168.749 232.776C170.336 227.147 178.113 216.641 178.113 216.641Z" fill="url(#paint26_linear_455_17156)"/>
<path fill-rule="evenodd" clip-rule="evenodd" d="M149.315 198.708C149.315 199.884 151.152 204.982 151.721 211.21C152.121 215.595 151.234 220.54 151.5 225.069C152.143 236.03 155.101 283.213 155.101 283.213C155.101 283.213 157.118 284.652 159.392 284.983C161.666 285.313 165.391 284.359 165.391 284.359C165.391 284.359 169.674 252.102 171.743 244.22C172.74 240.425 171.886 232.148 175.545 225.851C181.177 216.161 178.787 204.139 174.85 193.644L174.683 193.2C174.683 193.2 149.315 196.703 149.315 198.708Z" fill="url(#paint27_linear_455_17156)"/>
<mask id="mask0_455_17156" style="mask-type:luminance" maskUnits="userSpaceOnUse" x="149" y="193" width="30" height="93">
<path fill-rule="evenodd" clip-rule="evenodd" d="M149.315 198.708C149.315 199.884 151.152 204.982 151.721 211.21C152.121 215.595 151.234 220.54 151.5 225.069C152.143 236.03 155.101 283.213 155.101 283.213C155.101 283.213 157.118 284.652 159.392 284.983C161.666 285.313 165.391 284.359 165.391 284.359C165.391 284.359 169.674 252.102 171.743 244.22C172.74 240.425 171.886 232.148 175.545 225.851C181.177 216.161 178.787 204.139 174.85 193.644L174.683 193.2C174.683 193.2 149.315 196.703 149.315 198.708Z" fill="white"/>
</mask>
<g mask="url(#mask0_455_17156)">
<g opacity="0.5">
<path fill-rule="evenodd" clip-rule="evenodd" d="M150.73 199.939C154.893 201.163 170.442 201.926 177.282 197.682C184.123 193.438 160.373 194.82 160.373 194.82C160.373 194.82 146.568 198.715 150.73 199.939Z" fill="url(#paint28_linear_455_17156)" style="mix-blend-mode:multiply"/>
</g>
<g opacity="0.5">
<path fill-rule="evenodd" clip-rule="evenodd" d="M165.919 215.353C164.408 215.002 163.019 214.865 161.777 213.605C160.821 212.633 159.881 211.049 159.881 208.97C159.881 204.195 161.381 202.027 161.381 202.027" fill="url(#paint29_linear_455_17156)" style="mix-blend-mode:multiply"/>
</g>
</g>
<path fill-rule="evenodd" clip-rule="evenodd" d="M205.103 274.228C205.103 274.228 202.679 270.322 201.15 268.542C199.621 266.762 198.404 265.345 198.404 265.345C198.404 265.345 197.878 267.45 196.549 268.588C195.377 269.591 194.994 269.862 192.6 270.102C191.19 272.957 190.203 278.74 187.351 284.042C187.271 284.419 187.276 284.771 187.338 285.093C187.659 286.772 189.902 286.636 191.243 285.548L195.978 281.709L198.837 275.791L201.097 277.512L205.103 274.228Z" fill="url(#paint30_radial_455_17156)"/>
<path fill-rule="evenodd" clip-rule="evenodd" d="M162.541 296.55C162.541 296.55 163.254 292.035 163.254 289.712C163.254 287.388 163.254 285.538 163.254 285.538C163.254 285.538 161.467 286.821 159.699 286.857C158.142 286.89 157.67 286.857 155.678 285.538C152.719 286.839 145.941 290.898 140.268 293.169C140.268 293.455 140.309 293.783 140.374 294.123C140.686 295.765 142.283 296.756 143.955 296.715L150.628 296.55L156.713 293.812L157.312 296.55H162.541Z" fill="url(#paint31_radial_455_17156)"/>
<path fill-rule="evenodd" clip-rule="evenodd" d="M132.661 122.09C132.931 122.914 135.334 125.119 135.919 127.588C136.268 129.057 136.005 130.529 136.005 131.663C136.005 134.705 137.035 134.589 139.225 134.129C141.275 135.315 141.632 137.973 143.922 139.355C146.212 140.738 150.169 135.737 151.474 137.162C151.9 137.627 152.145 138.517 152.999 139.355C153.888 140.228 153.403 144.004 153.403 144.004C153.403 144.004 161.162 142.893 162.045 138.845C161.091 136.967 158.883 131.131 158.883 129.539C158.883 127.947 162.531 121.874 152.589 115.981C142.647 110.087 132.231 120.776 132.661 122.09Z" fill="url(#paint32_linear_455_17156)"/>
<mask id="mask1_455_17156" style="mask-type:luminance" maskUnits="userSpaceOnUse" x="132" y="114" width="31" height="31">
<path fill-rule="evenodd" clip-rule="evenodd" d="M132.661 122.09C132.931 122.914 135.334 125.119 135.919 127.588C136.268 129.057 136.005 130.529 136.005 131.663C136.005 134.705 137.035 134.589 139.225 134.129C141.275 135.315 141.632 137.973 143.922 139.355C146.212 140.738 150.169 135.737 151.474 137.162C151.9 137.627 152.145 138.517 152.999 139.355C153.888 140.228 153.403 144.004 153.403 144.004C153.403 144.004 161.162 142.893 162.045 138.845C161.091 136.967 158.883 131.131 158.883 129.539C158.883 127.947 162.531 121.874 152.589 115.981C142.647 110.087 132.231 120.776 132.661 122.09Z" fill="white"/>
</mask>
<g mask="url(#mask1_455_17156)">
<g opacity="0.5">
<path fill-rule="evenodd" clip-rule="evenodd" d="M148.954 137.734C150.5 136.586 152.568 132.767 152.568 132.472C152.568 132.178 153.654 141.776 153.654 141.776C153.654 141.776 147.408 138.882 148.954 137.734Z" fill="#3D82F0" style="mix-blend-mode:multiply"/>
</g>
<path d="M139.573 136.502C139.971 135.606 140.653 135.075 141.758 134.764" stroke="#223762" stroke-width="2" stroke-linecap="round"/>
</g>
<path fill-rule="evenodd" clip-rule="evenodd" d="M117.497 167.597C115.485 165.863 112.994 165.269 111.43 162.901C109.866 160.533 105.324 152.575 106.505 151.547C107.686 150.518 110.643 147.745 111.758 147.745C112.874 147.745 114.924 151.951 115.943 153.865C116.963 155.778 118.68 159.857 118.68 161.54C118.68 163.224 119.51 169.33 117.497 167.597Z" fill="url(#paint33_linear_455_17156)"/>
<path fill-rule="evenodd" clip-rule="evenodd" d="M105.198 149.338C104.129 147.468 104.729 145.086 106.557 143.946C108.799 142.547 111.753 143.28 113.081 145.565L117.461 153.108C118.657 155.168 117.992 157.807 115.961 159.053C113.849 160.348 111.085 159.64 109.856 157.489L105.198 149.338Z" fill="#223762"/>
<path fill-rule="evenodd" clip-rule="evenodd" d="M106.313 148.045C105.502 146.621 105.983 144.809 107.395 143.976L108.313 143.435C109.747 142.588 111.597 143.072 112.433 144.513L117.321 152.938C118.153 154.372 117.663 156.21 116.227 157.04L115.238 157.612C113.797 158.445 111.954 157.946 111.13 156.5L106.313 148.045Z" fill="url(#paint34_linear_455_17156)"/>
<path fill-rule="evenodd" clip-rule="evenodd" d="M142.936 168.357C142.936 168.357 133.951 179.409 133.503 179.409C133.055 179.409 122.736 165.044 122.736 164.388C122.736 163.732 123.472 161.16 121.43 158.417C119.387 155.673 118.141 150.867 117.066 150.012C115.992 149.156 115.984 148.783 115.444 149.246C114.904 149.709 114.939 150.106 115.444 151.116C115.949 152.127 117.066 155.031 117.066 155.779C117.066 156.526 116.55 159.189 117.066 160.203C117.583 161.217 117.089 165.162 117.731 167.172C118.372 169.182 130.005 189.574 133.418 189.136C136.831 188.698 148.888 176.603 148.888 176.603C148.888 176.603 150.755 171.272 147.691 169.278C144.626 167.284 142.936 168.357 142.936 168.357Z" fill="url(#paint35_linear_455_17156)"/>
<mask id="mask2_455_17156" style="mask-type:luminance" maskUnits="userSpaceOnUse" x="115" y="149" width="35" height="41">
<path fill-rule="evenodd" clip-rule="evenodd" d="M142.936 168.357C142.936 168.357 133.951 179.409 133.503 179.409C133.055 179.409 122.736 165.044 122.736 164.388C122.736 163.732 123.472 161.16 121.43 158.417C119.387 155.673 118.141 150.867 117.066 150.012C115.992 149.156 115.984 148.783 115.444 149.246C114.904 149.709 114.939 150.106 115.444 151.116C115.949 152.127 117.066 155.031 117.066 155.779C117.066 156.526 116.55 159.189 117.066 160.203C117.583 161.217 117.089 165.162 117.731 167.172C118.372 169.182 130.005 189.574 133.418 189.136C136.831 188.698 148.888 176.603 148.888 176.603C148.888 176.603 150.755 171.272 147.691 169.278C144.626 167.284 142.936 168.357 142.936 168.357Z" fill="white"/>
</mask>
<g mask="url(#mask2_455_17156)">
<g opacity="0.5">
<path fill-rule="evenodd" clip-rule="evenodd" d="M140.537 169.057C140.537 169.057 143.288 172.389 145.613 174.701C146.938 178.046 145.925 180.522 146.938 180.177C147.951 179.832 149.893 170.499 148.922 169.057C148.512 168.448 145.55 165.992 143.288 166.391C141.975 166.623 140.537 169.057 140.537 169.057Z" fill="#3D82F0" style="mix-blend-mode:multiply"/>
</g>
<path d="M133.561 179.108C133.875 179.373 134.339 180.361 134.72 181.166" stroke="#223762" stroke-width="2" stroke-linecap="round"/>
</g>
<path fill-rule="evenodd" clip-rule="evenodd" d="M146.925 172.752C142.937 169.943 138.314 164.782 140.626 162.499C142.937 160.215 151.67 149.055 153.473 146.72C155.276 144.385 157.609 159.025 155.113 162.499C152.617 165.972 150.328 169.872 146.925 172.752Z" fill="url(#paint36_linear_455_17156)"/>
<path fill-rule="evenodd" clip-rule="evenodd" d="M148.253 197.731C147.731 194.093 150.917 183.071 148 176.52C146.744 173.698 144.837 171.42 144.71 168.264C144.535 163.903 146.573 158.796 147.731 156.628C152.181 148.298 152.077 143.669 153.365 142.35C155.228 142.35 160.227 140.972 162.063 138.303C164.123 139.429 171.261 147.445 173.424 151.908C175.586 156.371 174.897 170.104 174.897 178.327C174.897 186.55 176.053 191.96 176.053 194.093C176.053 196.226 149.013 203.023 148.253 197.731Z" fill="url(#paint37_linear_455_17156)"/>
<path fill-rule="evenodd" clip-rule="evenodd" d="M161.772 198.788C161.772 198.788 164.096 192.508 164.096 190.016C164.096 187.524 160.61 169.244 161.772 167.204C162.934 165.164 170.5 185.86 170.5 185.86C170.5 185.86 167.281 194.557 166.212 196.578C165.143 198.599 161.772 198.788 161.772 198.788Z" fill="url(#paint38_linear_455_17156)" style="mix-blend-mode:multiply"/>
<path fill-rule="evenodd" clip-rule="evenodd" d="M142.51 120.496C135.518 116.741 133.303 123.579 132.281 122.71C129.581 119.386 131.006 115.607 132.281 112.449C134.423 107.139 147.527 98.3773 157.855 107.74C168.184 117.102 159.666 133.2 159.666 133.2C159.666 133.2 157.065 132.248 156.405 129.643C155.745 127.037 149.631 125.846 149.631 125.846C149.631 125.846 151.345 123.274 149.631 121.713C147.917 120.152 147.174 120.658 146.646 121.179C146.1 121.434 146.038 123.731 146.038 123.731C146.038 123.731 143.86 121.179 142.51 120.496Z" fill="url(#paint39_radial_455_17156)"/>
<path fill-rule="evenodd" clip-rule="evenodd" d="M161.654 125.338C161.654 126.143 163.486 128.56 166.767 128.56C170.048 128.56 179.869 126.066 183.124 133.863C186.38 141.659 181.886 142.026 187.189 147.657C192.492 153.288 192.695 168.533 179.731 164.888C166.767 161.242 168.81 144.67 168.81 140.249C168.81 135.827 163.938 134.247 159.566 133.25C157.183 128.56 161.654 124.534 161.654 125.338Z" fill="#223762"/>
<mask id="mask3_455_17156" style="mask-type:luminance" maskUnits="userSpaceOnUse" x="158" y="125" width="33" height="41">
<path fill-rule="evenodd" clip-rule="evenodd" d="M161.654 125.338C161.654 126.143 163.486 128.56 166.767 128.56C170.048 128.56 179.869 126.066 183.124 133.863C186.38 141.659 181.886 142.026 187.189 147.657C192.492 153.288 192.695 168.533 179.731 164.888C166.767 161.242 168.81 144.67 168.81 140.249C168.81 135.827 163.938 134.247 159.566 133.25C157.183 128.56 161.654 124.534 161.654 125.338Z" fill="white"/>
</mask>
<g mask="url(#mask3_455_17156)">
<g opacity="0.3">
<path fill-rule="evenodd" clip-rule="evenodd" d="M159.766 132.885C163.258 131.94 170.894 131.983 173.135 136.207C175.376 140.432 179.082 159.505 170.834 160.325C162.586 161.145 156.273 133.831 159.766 132.885Z" fill="#223762" style="mix-blend-mode:multiply"/>
</g>
<path d="M160.216 133.582C160.216 131.72 160.312 128.522 163.359 126.959" stroke="#D6E3FA" stroke-width="6" stroke-linecap="round" stroke-linejoin="round"/>
</g>
<path fill-rule="evenodd" clip-rule="evenodd" d="M165.923 189.626C165.117 186.253 160.446 168.217 161.513 163.693C162.58 159.169 170.792 156.972 171.65 162.322C172.153 165.456 173.369 175.223 174.29 182.779C175.053 189.04 173.984 195.381 171.234 201.057L167.31 209.158L164.308 214.931C164.308 214.931 161.513 214.475 160.21 210.982C159.785 209.843 160.048 208.521 160.656 207.157C163.267 201.289 166.578 192.363 165.923 189.626Z" fill="url(#paint40_linear_455_17156)"/>
<mask id="mask4_455_17156" style="mask-type:luminance" maskUnits="userSpaceOnUse" x="160" y="159" width="15" height="56">
<path fill-rule="evenodd" clip-rule="evenodd" d="M165.923 189.626C165.117 186.253 160.446 168.217 161.513 163.693C162.58 159.169 170.792 156.972 171.65 162.322C172.153 165.456 173.369 175.223 174.29 182.779C175.053 189.04 173.984 195.381 171.234 201.057L167.31 209.158L164.308 214.931C164.308 214.931 161.513 214.475 160.21 210.982C159.785 209.843 160.048 208.521 160.656 207.157C163.267 201.289 166.578 192.363 165.923 189.626Z" fill="white"/>
</mask>
<g mask="url(#mask4_455_17156)">
<g opacity="0.5">
<path fill-rule="evenodd" clip-rule="evenodd" d="M162.05 169.699C165.228 170.403 170.904 170.758 173.385 169.699C175.867 168.64 172.601 165.36 172.601 165.36C172.601 165.36 158.872 168.994 162.05 169.699Z" fill="#3D82F0" style="mix-blend-mode:multiply"/>
</g>
</g>
<path fill-rule="evenodd" clip-rule="evenodd" d="M159.659 168.011C158.27 164.035 155.685 147.856 162.739 146.078C169.793 144.299 173.964 163.03 173.964 164.794C173.964 166.559 161.047 171.986 159.659 168.011Z" fill="url(#paint41_linear_455_17156)"/>
<path fill-rule="evenodd" clip-rule="evenodd" d="M150.443 161.012C150.734 159.401 152.366 158.391 153.936 158.851C155.271 159.242 156.093 160.572 155.845 161.943L154.875 167.316C154.657 168.527 153.633 169.436 152.402 169.509C151.625 169.556 150.868 169.26 150.333 168.7L150.26 168.624C149.63 167.964 149.355 167.043 149.517 166.142L150.443 161.012Z" fill="url(#paint42_linear_455_17156)"/>
<path d="M108.923 136.007L108.401 129.117" stroke="url(#paint43_linear_455_17156)" stroke-width="6" stroke-linecap="round"/>
<path d="M113.886 136.007L116.498 129.117" stroke="url(#paint44_linear_455_17156)" stroke-width="6" stroke-linecap="round"/>
<path d="M116.498 139.448L122.114 135.237" stroke="url(#paint45_linear_455_17156)" stroke-width="6" stroke-linecap="round"/>
<path opacity="0.460603" fill-rule="evenodd" clip-rule="evenodd" d="M105.005 145.62L141.933 116.359L156.202 141.776L112.716 159.228L105.005 145.62Z" fill="url(#paint46_linear_455_17156)"/>
<defs>
<filter id="filter0_i_455_17156" x="19.769" y="19.5154" width="136.52" height="83.5067" filterUnits="userSpaceOnUse" color-interpolation-filters="sRGB">
<feFlood flood-opacity="0" result="BackgroundImageFix"/>
<feBlend mode="normal" in="SourceGraphic" in2="BackgroundImageFix" result="shape"/>
<feColorMatrix in="SourceAlpha" type="matrix" values="0 0 0 0 0 0 0 0 0 0 0 0 0 0 0 0 0 0 127 0" result="hardAlpha"/>
<feOffset dy="-14"/>
<feGaussianBlur stdDeviation="12.5"/>
<feComposite in2="hardAlpha" operator="arithmetic" k2="-1" k3="1"/>
<feColorMatrix type="matrix" values="0 0 0 0 0.788056 0 0 0 0 0.827193 0 0 0 0 0.89764 0 0 0 0.337126 0"/>
<feBlend mode="normal" in2="shape" result="effect1_innerShadow_455_17156"/>
</filter>
<filter id="filter1_i_455_17156" x="162.941" y="76.6184" width="134.892" height="85.4269" filterUnits="userSpaceOnUse" color-interpolation-filters="sRGB">
<feFlood flood-opacity="0" result="BackgroundImageFix"/>
<feBlend mode="normal" in="SourceGraphic" in2="BackgroundImageFix" result="shape"/>
<feColorMatrix in="SourceAlpha" type="matrix" values="0 0 0 0 0 0 0 0 0 0 0 0 0 0 0 0 0 0 127 0" result="hardAlpha"/>
<feOffset dy="-14"/>
<feGaussianBlur stdDeviation="12.5"/>
<feComposite in2="hardAlpha" operator="arithmetic" k2="-1" k3="1"/>
<feColorMatrix type="matrix" values="0 0 0 0 0.788056 0 0 0 0 0.827193 0 0 0 0 0.89764 0 0 0 0.337126 0"/>
<feBlend mode="normal" in2="shape" result="effect1_innerShadow_455_17156"/>
</filter>
<linearGradient id="paint0_linear_455_17156" x1="65.5392" y1="93.8633" x2="58.6542" y2="46.4629" gradientUnits="userSpaceOnUse">
<stop stop-color="#ECF1FF"/>
<stop offset="1" stop-color="white"/>
</linearGradient>
<linearGradient id="paint1_linear_455_17156" x1="208.25" y1="151.455" x2="201.168" y2="103.765" gradientUnits="userSpaceOnUse">
<stop stop-color="#ECF1FF"/>
<stop offset="1" stop-color="white"/>
</linearGradient>
<linearGradient id="paint2_linear_455_17156" x1="185.172" y1="144.401" x2="195.11" y2="96.8822" gradientUnits="userSpaceOnUse">
<stop stop-color="#E6EFFF"/>
<stop offset="1" stop-color="#D6E3FA"/>
</linearGradient>
<linearGradient id="paint3_linear_455_17156" x1="140.758" y1="114.128" x2="136.962" y2="163.244" gradientUnits="userSpaceOnUse">
<stop stop-color="white" stop-opacity="0.01"/>
<stop offset="1" stop-color="white" stop-opacity="0.01"/>
</linearGradient>
<radialGradient id="paint4_radial_455_17156" cx="0" cy="0" r="1" gradientUnits="userSpaceOnUse" gradientTransform="translate(226.992 35.2258) rotate(138.521) scale(136.765 156.637)">
<stop stop-color="#EDF3FD"/>
<stop offset="0.40887" stop-color="#DCE8FB"/>
<stop offset="1" stop-color="#AEBDD8"/>
</radialGradient>
<radialGradient id="paint5_angular_455_17156" cx="0" cy="0" r="1" gradientUnits="userSpaceOnUse" gradientTransform="translate(166.276 68.9151) scale(11.1749 11.4101)">
<stop stop-color="#A3BAE4"/>
<stop offset="1" stop-color="#223762"/>
</radialGradient>
<linearGradient id="paint6_linear_455_17156" x1="190.924" y1="168.49" x2="224.671" y2="181.471" gradientUnits="userSpaceOnUse">
<stop stop-color="#CFDDF3"/>
<stop offset="1" stop-color="#A1B8E3"/>
</linearGradient>
<linearGradient id="paint7_linear_455_17156" x1="211.374" y1="191.559" x2="211.624" y2="206.217" gradientUnits="userSpaceOnUse">
<stop stop-color="#CFDDF3"/>
<stop offset="1" stop-color="#A1B8E3"/>
</linearGradient>
<linearGradient id="paint8_linear_455_17156" x1="205.864" y1="183.311" x2="206.013" y2="192.085" gradientUnits="userSpaceOnUse">
<stop stop-color="#CFDDF3"/>
<stop offset="1" stop-color="#A1B8E3"/>
</linearGradient>
<linearGradient id="paint9_linear_455_17156" x1="201.65" y1="168.178" x2="202.732" y2="231.628" gradientUnits="userSpaceOnUse">
<stop stop-color="#CFDDF3"/>
<stop offset="1" stop-color="#A1B8E3"/>
</linearGradient>
<linearGradient id="paint10_linear_455_17156" x1="59.4351" y1="164.999" x2="68.2328" y2="238.346" gradientUnits="userSpaceOnUse">
<stop stop-color="#CFDDF3"/>
<stop offset="1" stop-color="#A1B8E3"/>
</linearGradient>
<linearGradient id="paint11_linear_455_17156" x1="12.205" y1="-27.8869" x2="-7.2381" y2="-23.3129" gradientUnits="userSpaceOnUse">
<stop stop-color="#CFDDF3"/>
<stop offset="1" stop-color="#A1B8E3"/>
</linearGradient>
<linearGradient id="paint12_linear_455_17156" x1="12.03" y1="-28.2863" x2="-7.19045" y2="-23.8925" gradientUnits="userSpaceOnUse">
<stop stop-color="#CFDDF3"/>
<stop offset="1" stop-color="#A1B8E3"/>
</linearGradient>
<linearGradient id="paint13_linear_455_17156" x1="12.0261" y1="-28.2951" x2="-7.18933" y2="-23.9052" gradientUnits="userSpaceOnUse">
<stop stop-color="#CFDDF3"/>
<stop offset="1" stop-color="#A1B8E3"/>
</linearGradient>
<linearGradient id="paint14_linear_455_17156" x1="12.0261" y1="-28.2951" x2="-7.18933" y2="-23.9052" gradientUnits="userSpaceOnUse">
<stop stop-color="#CFDDF3"/>
<stop offset="1" stop-color="#A1B8E3"/>
</linearGradient>
<linearGradient id="paint15_linear_455_17156" x1="12.2531" y1="-27.7752" x2="-7.25024" y2="-23.1504" gradientUnits="userSpaceOnUse">
<stop stop-color="#CFDDF3"/>
<stop offset="1" stop-color="#A1B8E3"/>
</linearGradient>
<linearGradient id="paint16_linear_455_17156" x1="12.151" y1="-28.0113" x2="-7.22398" y2="-23.4936" gradientUnits="userSpaceOnUse">
<stop stop-color="#CFDDF3"/>
<stop offset="1" stop-color="#A1B8E3"/>
</linearGradient>
<linearGradient id="paint17_linear_455_17156" x1="12.1219" y1="-28.078" x2="-7.21615" y2="-23.5905" gradientUnits="userSpaceOnUse">
<stop stop-color="#CFDDF3"/>
<stop offset="1" stop-color="#A1B8E3"/>
</linearGradient>
<linearGradient id="paint18_linear_455_17156" x1="230.945" y1="139.897" x2="271.075" y2="173.874" gradientUnits="userSpaceOnUse">
<stop stop-color="#CFDDF3"/>
<stop offset="1" stop-color="#A1B8E3"/>
</linearGradient>
<linearGradient id="paint19_linear_455_17156" x1="247.997" y1="181.352" x2="241.489" y2="201.853" gradientUnits="userSpaceOnUse">
<stop stop-color="#CFDDF3"/>
<stop offset="1" stop-color="#A1B8E3"/>
</linearGradient>
<linearGradient id="paint20_linear_455_17156" x1="244.393" y1="167.369" x2="240.498" y2="179.641" gradientUnits="userSpaceOnUse">
<stop stop-color="#CFDDF3"/>
<stop offset="1" stop-color="#A1B8E3"/>
</linearGradient>
<linearGradient id="paint21_linear_455_17156" x1="245.944" y1="144.458" x2="217.775" y2="233.203" gradientUnits="userSpaceOnUse">
<stop stop-color="#CFDDF3"/>
<stop offset="1" stop-color="#A1B8E3"/>
</linearGradient>
<linearGradient id="paint22_linear_455_17156" x1="197.945" y1="266.572" x2="55.4455" y2="266.572" gradientUnits="userSpaceOnUse">
<stop stop-color="#D0DCF1"/>
<stop offset="1" stop-color="white" stop-opacity="0.01"/>
</linearGradient>
<linearGradient id="paint23_linear_455_17156" x1="154.55" y1="280.444" x2="17.9786" y2="280.444" gradientUnits="userSpaceOnUse">
<stop stop-color="#D0DCF1"/>
<stop offset="1" stop-color="white" stop-opacity="0.01"/>
</linearGradient>
<linearGradient id="paint24_linear_455_17156" x1="155.679" y1="281.966" x2="155.679" y2="288.09" gradientUnits="userSpaceOnUse">
<stop stop-color="#003F9B"/>
<stop offset="1" stop-color="#3D82F0"/>
</linearGradient>
<linearGradient id="paint25_linear_455_17156" x1="190.942" y1="262.317" x2="190.942" y2="271.503" gradientUnits="userSpaceOnUse">
<stop stop-color="#003F9B"/>
<stop offset="1" stop-color="#3D82F0"/>
</linearGradient>
<linearGradient id="paint26_linear_455_17156" x1="166.857" y1="243.436" x2="185.995" y2="253.701" gradientUnits="userSpaceOnUse">
<stop stop-color="#6A89BB"/>
<stop offset="1" stop-color="#839ED6"/>
</linearGradient>
<linearGradient id="paint27_linear_455_17156" x1="211.626" y1="140.452" x2="158.16" y2="143.741" gradientUnits="userSpaceOnUse">
<stop stop-color="#CFDDF3"/>
<stop offset="1" stop-color="#A1B8E3"/>
</linearGradient>
<linearGradient id="paint28_linear_455_17156" x1="184.05" y1="199.522" x2="183.913" y2="195.733" gradientUnits="userSpaceOnUse">
<stop stop-color="#CFDDF3" stop-opacity="0.477723"/>
<stop offset="1" stop-color="#A1B8E3"/>
</linearGradient>
<linearGradient id="paint29_linear_455_17156" x1="165.391" y1="203.842" x2="160.274" y2="205.443" gradientUnits="userSpaceOnUse">
<stop stop-color="#CFDDF3" stop-opacity="0.174423"/>
<stop offset="1" stop-color="#5477B8"/>
</linearGradient>
<radialGradient id="paint30_radial_455_17156" cx="0" cy="0" r="1" gradientUnits="userSpaceOnUse" gradientTransform="translate(185.225 283.335) rotate(20.244) scale(8.3914 24.4532)">
<stop stop-color="#47689B"/>
<stop offset="1" stop-color="#223762"/>
</radialGradient>
<radialGradient id="paint31_radial_455_17156" cx="0" cy="0" r="1" gradientUnits="userSpaceOnUse" gradientTransform="translate(140.268 291.152) rotate(59.4215) scale(8.48885 25.8289)">
<stop stop-color="#47689B"/>
<stop offset="1" stop-color="#223762"/>
</radialGradient>
<linearGradient id="paint32_linear_455_17156" x1="128.844" y1="142.076" x2="144.946" y2="142.076" gradientUnits="userSpaceOnUse">
<stop stop-color="#70B8F9"/>
<stop offset="1" stop-color="#3D82F0"/>
</linearGradient>
<linearGradient id="paint33_linear_455_17156" x1="115.243" y1="156.031" x2="111.64" y2="158.901" gradientUnits="userSpaceOnUse">
<stop stop-color="#2F71DA"/>
<stop offset="1" stop-color="#3D82F0"/>
</linearGradient>
<linearGradient id="paint34_linear_455_17156" x1="118.551" y1="158.83" x2="118.551" y2="142.195" gradientUnits="userSpaceOnUse">
<stop stop-color="#EDF3FD"/>
<stop offset="1" stop-color="white"/>
</linearGradient>
<linearGradient id="paint35_linear_455_17156" x1="113.934" y1="150.606" x2="113.934" y2="160.547" gradientUnits="userSpaceOnUse">
<stop stop-color="#70B8F9"/>
<stop offset="1" stop-color="#3D82F0"/>
</linearGradient>
<linearGradient id="paint36_linear_455_17156" x1="143.91" y1="166.819" x2="155.482" y2="163.67" gradientUnits="userSpaceOnUse">
<stop stop-color="#CFDDF3"/>
<stop offset="1" stop-color="#A1B8E3"/>
</linearGradient>
<linearGradient id="paint37_linear_455_17156" x1="156.159" y1="201.874" x2="183.726" y2="189.862" gradientUnits="userSpaceOnUse">
<stop stop-color="#EDF3FD"/>
<stop offset="1" stop-color="#D6E3FA"/>
</linearGradient>
<linearGradient id="paint38_linear_455_17156" x1="162.919" y1="220.999" x2="175.737" y2="219.596" gradientUnits="userSpaceOnUse">
<stop stop-color="#D1DEF3" stop-opacity="0.126387"/>
<stop offset="1" stop-color="#A4BAE4"/>
</linearGradient>
<radialGradient id="paint39_radial_455_17156" cx="0" cy="0" r="1" gradientUnits="userSpaceOnUse" gradientTransform="translate(147.13 103.613) rotate(90) scale(12.1061 35.7675)">
<stop stop-color="#47689B"/>
<stop offset="1" stop-color="#223762"/>
</radialGradient>
<linearGradient id="paint40_linear_455_17156" x1="175.629" y1="180.569" x2="164.016" y2="180.343" gradientUnits="userSpaceOnUse">
<stop stop-color="#0060C9"/>
<stop offset="1" stop-color="#3D82F0"/>
</linearGradient>
<linearGradient id="paint41_linear_455_17156" x1="168.254" y1="180.557" x2="183.602" y2="172.648" gradientUnits="userSpaceOnUse">
<stop stop-color="#E3EDFE"/>
<stop offset="1" stop-color="#B8C8E6"/>
</linearGradient>
<linearGradient id="paint42_linear_455_17156" x1="158.834" y1="156.094" x2="150.421" y2="156.928" gradientUnits="userSpaceOnUse">
<stop stop-color="#D2DFF5" stop-opacity="0.542714"/>
<stop offset="1" stop-color="#C5D5F5"/>
</linearGradient>
<linearGradient id="paint43_linear_455_17156" x1="108.401" y1="129.117" x2="108.401" y2="136.007" gradientUnits="userSpaceOnUse">
<stop stop-color="#FFB417"/>
<stop offset="1" stop-color="#FECC4C"/>
</linearGradient>
<linearGradient id="paint44_linear_455_17156" x1="113.886" y1="129.117" x2="113.886" y2="136.007" gradientUnits="userSpaceOnUse">
<stop stop-color="#FFB417"/>
<stop offset="1" stop-color="#FECC4C"/>
</linearGradient>
<linearGradient id="paint45_linear_455_17156" x1="116.498" y1="134.986" x2="116.498" y2="139.579" gradientUnits="userSpaceOnUse">
<stop stop-color="#FFB417"/>
<stop offset="1" stop-color="#FECC4C"/>
</linearGradient>
<linearGradient id="paint46_linear_455_17156" x1="128.535" y1="121.041" x2="100.563" y2="147.392" gradientUnits="userSpaceOnUse">
<stop stop-color="white" stop-opacity="0.01"/>
<stop offset="1" stop-color="#4C9CFE"/>
</linearGradient>
</defs>
</svg>
