<svg width="50" height="72" viewBox="0 0 50 72" fill="none" xmlns="http://www.w3.org/2000/svg">
<path fill-rule="evenodd" clip-rule="evenodd" d="M9.30857 25.4015C3.98331 27.7204 -1.34188 39.1988 0.304106 46.538C0.938296 49.3555 2.80691 52.5846 5.31947 54.4242C7.99178 56.3607 12.6925 56.3316 16.3282 58.2632C20.2834 60.3643 24.4662 65.5249 29.7963 65.554C32.9092 65.554 36.6175 62.262 36.2351 58.2439C35.78 53.4705 30.9098 49.7864 28.4892 45.1244C27.6735 43.4729 27.2342 41.6609 27.2032 39.8192C27.1722 37.9775 27.5503 36.1518 28.3101 34.4738C32.2653 26.2778 44.9442 29.8505 48.9817 21.6835C53.3388 12.8823 42.7657 6.97612 35.1893 8.09443C25.4005 9.54677 26.9256 19.0064 21.4647 23.3392C18.2405 25.8905 15.5052 22.7147 9.30857 25.4015Z" fill="#F9E0E0"/>
<path fill-rule="evenodd" clip-rule="evenodd" d="M37.1791 17.2006C37.177 16.6066 37.0008 16.0262 36.672 15.5314C36.3433 15.0366 35.8765 14.6491 35.3297 14.417L18.2938 7.13103C17.4268 6.76316 16.4524 6.73893 15.5682 7.06326L14.7452 7.36825C14.496 7.45895 14.281 7.62432 14.1294 7.8418C13.9778 8.05928 13.8969 8.31826 13.898 8.58338V54.5307C13.8994 54.8876 14.0058 55.2362 14.2037 55.5331C14.4017 55.8301 14.6826 56.0623 15.0114 56.2009L33.3787 63.9031C33.7296 64.0494 34.1071 64.1211 34.4871 64.1136C34.8672 64.1061 35.2415 64.0196 35.5863 63.8596L36.3947 63.4868C36.7074 63.3406 36.9717 63.1079 37.1561 62.8162C37.3406 62.5244 37.4376 62.186 37.4357 61.8408C37.4211 55.5328 37.2275 25.2998 37.1791 17.2006Z" fill="#282C4C"/>
<path fill-rule="evenodd" clip-rule="evenodd" d="M34.5164 17.7428C34.5163 17.4105 34.4178 17.0856 34.2335 16.8091C34.0491 16.5326 33.7872 16.3168 33.4805 16.1888L15.21 8.52528C15.1312 8.4947 15.0463 8.48315 14.9621 8.49156C14.878 8.49997 14.7971 8.52811 14.7259 8.57369C14.6523 8.62221 14.5919 8.68839 14.5505 8.76619C14.509 8.84399 14.4877 8.93094 14.4885 9.01908V54.4193C14.4897 54.6266 14.5518 54.8289 14.6671 55.0011C14.7825 55.1733 14.946 55.3077 15.1373 55.3876L33.0495 62.9059C33.2091 62.9694 33.3817 62.9932 33.5525 62.9753C33.7232 62.9574 33.8871 62.8983 34.0299 62.803C34.1728 62.7078 34.2904 62.5793 34.3726 62.4285C34.4548 62.2778 34.4992 62.1093 34.5019 61.9376L34.5164 17.7428Z" fill="#ECEDF5"/>
<path fill-rule="evenodd" clip-rule="evenodd" d="M29.4721 14.4847L19.0151 10.0405V11.1588C19.0155 11.3265 19.0653 11.4903 19.1583 11.6298C19.2513 11.7693 19.3834 11.8783 19.538 11.9431L28.8136 15.8838C28.8857 15.9117 28.9635 15.9219 29.0403 15.9135C29.1172 15.9052 29.1908 15.8786 29.2553 15.836C29.3198 15.7933 29.3731 15.7358 29.4108 15.6683C29.4485 15.6009 29.4695 15.5253 29.4721 15.4481V14.4847Z" fill="#282C4C"/>
<path fill-rule="evenodd" clip-rule="evenodd" d="M44.8233 35.5389C43.7389 37.4511 42.7271 39.3779 41.7104 41.3192L42.2817 41.6194C43.2935 39.6829 44.3004 37.7464 45.38 35.8584L44.8233 35.5389Z" fill="#F56C2C"/>
<path fill-rule="evenodd" clip-rule="evenodd" d="M41.3667 36.6233C42.606 37.8675 43.7292 39.2811 44.8814 40.6075L45.3655 40.1864C44.2036 38.8454 43.0757 37.4221 41.8267 36.1682L41.3667 36.6233Z" fill="#F56C2C"/>
<path fill-rule="evenodd" clip-rule="evenodd" d="M8.99888 13.0905C7.88541 14.6203 6.89784 16.2082 5.75049 17.7089L6.26356 18.101C7.41091 16.5954 8.40345 15.0027 9.51691 13.4729L8.99888 13.0905Z" fill="#F56C2C"/>
<path fill-rule="evenodd" clip-rule="evenodd" d="M6.05542 14.4847C7.15436 15.4529 8.24367 16.4212 9.25062 17.4814L9.73474 17.0408C8.7181 15.9661 7.61423 14.9833 6.50077 14.0054L6.05542 14.4847Z" fill="#F56C2C"/>
<path fill-rule="evenodd" clip-rule="evenodd" d="M7.13501 12.9065C7.13501 14.8139 7.57076 16.6342 7.66274 18.5222L8.30665 18.4883C8.21467 16.6148 7.77892 14.8042 7.78377 12.9065H7.13501Z" fill="#F56C2C"/>
<path fill-rule="evenodd" clip-rule="evenodd" d="M5.35329 48.7164C4.38507 48.6487 3.94933 47.8354 3.86703 46.9446C3.80482 46.4923 3.84662 46.0317 3.98924 45.598C4.13186 45.1643 4.3715 44.7688 4.69 44.4417C4.84252 44.3183 5.02153 44.2318 5.213 44.189C5.40447 44.1462 5.60323 44.1481 5.7938 44.1948C6.26581 44.309 6.72492 44.4712 7.16388 44.6789C7.92878 44.9888 8.67432 45.2018 9.34724 44.8871C9.69972 44.7097 9.99628 44.4383 10.2041 44.1028C10.4343 43.7357 10.5982 43.3309 10.6882 42.9071C10.7934 42.3761 10.7768 41.8283 10.6398 41.3047C10.4888 40.7355 10.2863 40.1813 10.0346 39.649L9.43435 39.891C9.67398 40.3851 9.86683 40.9005 10.0104 41.4305C10.1271 41.8582 10.1453 42.3067 10.0637 42.7425C9.98749 43.0976 9.84983 43.4367 9.65702 43.7446C9.5145 43.9822 9.30822 44.1751 9.06157 44.3013C8.54841 44.5482 7.98203 44.3013 7.40109 44.0835C6.91786 43.8608 6.41341 43.6872 5.89544 43.5655C5.61308 43.5012 5.31985 43.5023 5.03796 43.5686C4.75607 43.6348 4.49303 43.7646 4.26888 43.9479C3.51366 44.5627 3.10704 45.8505 3.21355 47.0124C3.32005 48.1742 3.99288 49.2732 5.29999 49.3652L5.35329 48.7164Z" fill="#279FF2"/>
<path fill-rule="evenodd" clip-rule="evenodd" d="M8.49041 39.3052C8.65501 39.9636 8.51457 40.8011 7.71094 40.8786L7.76909 41.5225C9.0181 41.4015 9.37152 40.1718 9.11494 39.1503L8.49041 39.3052Z" fill="#279FF2"/>
<path fill-rule="evenodd" clip-rule="evenodd" d="M37.0677 9.31923C37.6227 9.0713 38.2066 8.89402 38.8057 8.79155C39.4615 8.62296 40.1552 8.68448 40.7711 8.96583C41.3053 9.30219 41.69 9.83071 41.8459 10.4424C42.0827 11.2207 42.2448 12.0199 42.33 12.8291C42.4137 13.7916 42.5855 14.7445 42.8432 15.6757C43.0185 16.3056 43.3919 16.8623 43.9082 17.2635C44.225 17.4623 44.578 17.5967 44.9469 17.659C45.3157 17.7213 45.6932 17.7103 46.0577 17.6266C46.5813 17.5168 47.0887 17.3411 47.5681 17.1038L47.3164 16.5132C46.8854 16.7318 46.4282 16.8945 45.956 16.9973C45.673 17.0682 45.3788 17.082 45.0903 17.0379C44.8019 16.9939 44.5251 16.8928 44.2761 16.7407C43.8725 16.4215 43.5837 15.9797 43.4531 15.482C43.2084 14.5919 43.0464 13.6812 42.969 12.7613C42.8872 11.7481 42.6657 10.751 42.3107 9.79851C42.076 9.21336 41.6514 8.72404 41.1053 8.4091C40.361 8.05105 39.5146 7.9654 38.7136 8.16704C38.0614 8.2807 37.4257 8.47419 36.8208 8.74314L37.0677 9.31923Z" fill="#279FF2"/>
<path fill-rule="evenodd" clip-rule="evenodd" d="M39.8708 13.8699C40.2965 14.3871 40.5593 15.0188 40.6261 15.6853C40.7423 16.4212 40.7422 17.2054 40.7858 17.9558C40.8826 19.6115 41.2021 21.0735 42.9837 21.5867L43.1629 20.967C41.6863 20.541 41.512 19.2871 41.4297 17.9171C41.3861 17.1522 41.3812 16.3437 41.265 15.5885C41.1788 14.7983 40.8624 14.0509 40.355 13.439L39.8708 13.8699Z" fill="#279FF2"/>
<path fill-rule="evenodd" clip-rule="evenodd" d="M43.9229 10.2923C43.7922 11.5752 43.6373 13.2938 44.4603 14.417L44.9783 14.0393C44.6443 13.5265 44.466 12.9279 44.4652 12.3159C44.4495 11.6688 44.4835 11.0214 44.5668 10.3794L43.9229 10.2923Z" fill="#A14DF6"/>
<path fill-rule="evenodd" clip-rule="evenodd" d="M7.89023 47.9758C8.51958 47.4529 9.34256 47.3222 10.0591 47.1238C10.6738 47.0065 11.241 46.712 11.6906 46.2766C12.1069 45.8166 12.3683 45.1147 12.3006 43.9431L11.6567 43.977C11.7099 44.9113 11.5454 45.4778 11.2162 45.8457C10.845 46.1859 10.385 46.4142 9.88957 46.5041C9.02195 46.6471 8.19592 46.9775 7.46899 47.4723L7.89023 47.9758Z" fill="#A14DF6"/>
<path fill-rule="evenodd" clip-rule="evenodd" d="M35.5476 65.8008C36.4626 67.6308 37.2421 69.5915 38.2781 71.3585L38.8348 71.0341C37.8036 69.2768 37.0339 67.3258 36.1238 65.5104L35.5476 65.8008Z" fill="#FFBA16"/>
<path fill-rule="evenodd" clip-rule="evenodd" d="M36.7869 64.8617C37.1935 65.4426 37.5856 66.0381 37.9729 66.6287L38.5103 66.2753C38.1182 65.675 37.7261 65.0747 37.3146 64.4889L36.7869 64.8617Z" fill="#FFBA16"/>
<path fill-rule="evenodd" clip-rule="evenodd" d="M38.0215 63.9758L38.3458 64.3001L38.801 63.845L38.4717 63.5207L38.0215 63.9758Z" fill="#FFBA16"/>
<path fill-rule="evenodd" clip-rule="evenodd" d="M13.6995 5.72223C12.2472 4.02783 11.1628 1.96551 10.0977 0L9.53125 0.309833C10.6205 2.31407 11.705 4.41512 13.2106 6.14825L13.6995 5.72223Z" fill="#FFBA16"/>
<path fill-rule="evenodd" clip-rule="evenodd" d="M15.0454 4.90407C14.6881 3.98117 14.2405 3.09579 13.7093 2.2608L13.1526 2.59484C13.6631 3.39249 14.0928 4.23903 14.4354 5.12192L15.0454 4.90407Z" fill="#FFBA16"/>
<path fill-rule="evenodd" clip-rule="evenodd" d="M40.2 30.3056C41.2312 29.865 42.2914 29.4777 43.3564 29.1098L43.1483 28.4998C42.0687 28.8726 40.9939 29.2647 39.9482 29.7101L40.2 30.3056Z" fill="#FFBA16"/>
<path fill-rule="evenodd" clip-rule="evenodd" d="M10.7513 32.3243C9.43045 32.6916 8.13641 33.1493 6.87842 33.6944L7.16893 34.2705C8.39162 33.7376 9.65019 33.2911 10.9354 32.9343L10.7513 32.3243Z" fill="#FFBA16"/>
<path fill-rule="evenodd" clip-rule="evenodd" d="M34.9233 64.5519C35.4808 64.3057 36.0253 64.031 36.5547 63.7289C36.9395 63.4998 37.2492 63.1632 37.4455 62.7606C37.7829 61.8817 37.9297 60.9411 37.8763 60.0012C37.8763 59.0814 37.7698 58.1519 37.7989 57.3192C37.9489 52.4151 37.6924 47.4191 37.552 42.5101H36.9081C37.0436 47.4045 37.305 52.3861 37.1501 57.2805C37.1259 58.118 37.218 59.062 37.2325 59.9915C37.2834 60.8399 37.1547 61.6894 36.8549 62.4847C36.6545 62.8561 36.3383 63.1519 35.9544 63.3271C35.509 63.574 35.0152 63.7676 34.623 63.9709L34.9233 64.5519Z" fill="black"/>
<path fill-rule="evenodd" clip-rule="evenodd" d="M14.2852 12.2191C14.2852 11.2508 14.3578 10.3165 14.3869 9.36278C14.3869 9.17397 14.3869 8.92708 14.3869 8.68502C14.38 8.51089 14.4115 8.33737 14.479 8.1767C14.6563 7.90372 14.9181 7.69628 15.2244 7.58608C15.7658 7.37401 16.3381 7.25139 16.9188 7.22299C18.1678 7.14553 19.1119 7.84266 20.2011 8.38971C21.4501 9.00938 22.7718 9.4838 24.0112 10.1035L24.3015 9.52737C23.0622 8.90771 21.7358 8.43328 20.4916 7.80877C19.2475 7.18426 18.2454 6.49198 16.8802 6.57912C16.2158 6.6079 15.5611 6.74866 14.9437 6.99546C14.5058 7.16475 14.1352 7.47243 13.8882 7.8717C13.7899 8.06936 13.7339 8.28535 13.7237 8.50589C13.7237 8.79636 13.7237 9.11104 13.7237 9.34342C13.6947 10.3116 13.6366 11.2799 13.6221 12.2094L14.2852 12.2191Z" fill="black"/>
</svg>
