<svg width="50" height="41" viewBox="0 0 50 41" fill="none" xmlns="http://www.w3.org/2000/svg">
<path fill-rule="evenodd" clip-rule="evenodd" d="M7.5297 10.7023C5.61036 13.9387 3.79204 17.1091 4.42146 22.8866C4.70897 25.5169 7.18391 30.6378 10.533 30.6261C15.0633 30.6261 16.8117 23.6015 22.2472 24.1493C27.9509 24.7166 30.0178 38.1714 36.4169 30.8554C38.4155 28.4985 39.4101 25.4519 39.1872 22.3699C39.0356 20.7924 38.0216 18.943 38.5616 17.35C39.5718 14.3894 44.2458 14.6303 45.8621 11.0403C46.7674 9.01994 46.8373 6.72373 45.4192 4.92872C39.8943 -2.08426 34.4898 7.85822 28.7396 8.45267C23.1719 9.02769 26.1753 -0.440815 21.1283 0.371214C13.5014 1.59509 10.2999 6.02048 7.5297 10.7023Z" fill="#FFECE3"/>
<path fill-rule="evenodd" clip-rule="evenodd" d="M7.77063 11.0791C7.93123 11.6582 8.17324 12.2116 8.48941 12.7226C8.81103 13.3414 9.34688 13.822 9.99691 14.0747C10.7973 14.3505 11.6948 14.1718 12.635 13.8765C13.3539 13.6207 14.0853 13.4016 14.8263 13.2199C15.494 13.052 16.1984 13.108 16.8312 13.3793L17.1109 12.7887C16.3513 12.4559 15.5031 12.3835 14.6981 12.5827C13.9341 12.766 13.1806 12.9903 12.4408 13.2549C11.6443 13.5036 10.8866 13.6939 10.2145 13.4569C9.70908 13.2542 9.29476 12.8744 9.04889 12.3885C8.76045 11.9294 8.54056 11.4308 8.39616 10.9082L7.77063 11.0791Z" fill="#279FF2"/>
<path fill-rule="evenodd" clip-rule="evenodd" d="M22.3211 10.1428C21.774 10.0303 21.2819 9.73425 20.9263 9.30358C20.6334 8.85428 20.5044 8.31773 20.5611 7.78441L19.9083 7.7533C19.8423 8.4385 20.0167 9.12533 20.4018 9.69595C20.8419 10.2484 21.4597 10.6314 22.1502 10.78L22.3211 10.1428Z" fill="#279FF2"/>
<path fill-rule="evenodd" clip-rule="evenodd" d="M33.4718 22.5874C32.5765 23.6753 32.05 25.0195 31.9682 26.4261C31.8976 27.1809 32.072 27.9384 32.4656 28.5863C32.9668 29.3634 33.7943 29.8024 34.6957 30.1832C35.3961 30.4381 36.0755 30.7473 36.7277 31.1079C37.3437 31.4611 37.8124 32.0235 38.0487 32.6931L38.6665 32.4794C38.3852 31.6608 37.8183 30.9711 37.0696 30.5367C36.3892 30.1576 35.6799 29.8328 34.9483 29.5654C34.1712 29.239 33.4446 28.8855 33.0056 28.2172C32.6898 27.6806 32.5537 27.0572 32.6171 26.4378C32.6529 25.8753 32.768 25.3207 32.959 24.7904C33.1877 24.1374 33.5296 23.5297 33.9692 22.9954L33.4718 22.5874Z" fill="#279FF2"/>
<path fill-rule="evenodd" clip-rule="evenodd" d="M15.9686 32.254C16.4892 33.2836 16.5786 34.0024 16.3843 34.5852C16.1335 35.1519 15.7299 35.6376 15.2187 35.9878C14.0298 36.9669 12.6039 37.9732 12.7749 40.452L13.4276 40.4054C13.2722 38.218 14.5932 37.3555 15.6345 36.489C16.2423 36.065 16.7178 35.4778 17.006 34.795C17.243 34.1073 17.1886 33.2409 16.5514 31.9743L15.9686 32.254Z" fill="#279FF2"/>
<path fill-rule="evenodd" clip-rule="evenodd" d="M47.0122 9.67653C47.4201 9.37438 47.8877 9.16248 48.3838 9.05489C48.9372 8.93599 49.4783 8.76557 50 8.5459L49.7203 7.95532C49.2353 8.15971 48.7318 8.31717 48.2167 8.42548C47.635 8.55342 47.0877 8.80517 46.6121 9.16365L47.0122 9.67653Z" fill="#279FF2"/>
<path fill-rule="evenodd" clip-rule="evenodd" d="M26.4978 5.92326C26.4978 4.05054 26.1714 2.2361 26.0315 0.382812L25.3827 0.433323C25.5187 2.27107 25.8295 4.06998 25.845 5.92715L26.4978 5.92326Z" fill="#FFBA16"/>
<path fill-rule="evenodd" clip-rule="evenodd" d="M9.64718 18.2669C10.9177 18.0338 12.1998 17.8473 13.4509 17.4898L13.2799 16.8604C12.0483 17.1945 10.7817 17.3772 9.52673 17.6064L9.64718 18.2669Z" fill="#FFBA16"/>
<path fill-rule="evenodd" clip-rule="evenodd" d="M14.2629 8.10685C14.6515 8.36717 15.0012 8.63917 15.3703 8.91114L15.7588 8.38274C15.3703 8.11077 15.0206 7.83488 14.6398 7.57068L14.2629 8.10685Z" fill="#FFBA16"/>
<path fill-rule="evenodd" clip-rule="evenodd" d="M46.4565 15.6209C47.1054 15.5355 47.7465 15.4655 48.3992 15.4383L48.372 14.7856C47.696 14.8128 47.0316 14.8867 46.3672 14.976L46.4565 15.6209Z" fill="#FFBA16"/>
<path fill-rule="evenodd" clip-rule="evenodd" d="M22.0336 28.9593C22.2861 30.4008 22.4726 31.78 22.6591 33.2331L23.3041 33.1477C23.1176 31.6985 22.9155 30.3075 22.6785 28.8738L22.0336 28.9593Z" fill="#FFBA16"/>
<path fill-rule="evenodd" clip-rule="evenodd" d="M45.5125 19.6307C44.8952 20.525 44.3595 21.4729 43.9117 22.4631L44.5101 22.7273C44.9451 21.7757 45.4652 20.8654 46.0642 20.0075L45.5125 19.6307Z" fill="#F56C2C"/>
<path fill-rule="evenodd" clip-rule="evenodd" d="M43.5077 20.804C44.2109 21.1576 44.8792 21.5422 45.5669 21.9075L45.8738 21.3286C45.1745 20.9633 44.5062 20.5748 43.803 20.2213L43.5077 20.804Z" fill="#F56C2C"/>
<path fill-rule="evenodd" clip-rule="evenodd" d="M44.5645 20.027C44.7121 21.1537 44.7004 21.1188 44.8831 22.2144L45.5241 22.1095C45.3493 21.0216 45.3571 21.0566 45.2094 19.9415L44.5645 20.027Z" fill="#F56C2C"/>
<path fill-rule="evenodd" clip-rule="evenodd" d="M2.95672 14.7157C2.20297 16.1571 1.4026 17.5947 0.792603 19.1061L1.39871 19.3509C2.00093 17.8589 2.78965 16.4408 3.53174 15.0188L2.95672 14.7157Z" fill="#F56C2C"/>
<path fill-rule="evenodd" clip-rule="evenodd" d="M0 16.6778C1.41989 17.2854 2.79485 17.993 4.11454 18.7953L4.46422 18.2475C3.1191 17.4266 1.71678 16.7034 0.268087 16.0834L0 16.6778Z" fill="#F56C2C"/>
<path fill-rule="evenodd" clip-rule="evenodd" d="M37.5787 0.755821C37.1391 0.614904 36.6681 0.603715 36.2223 0.723617C35.7764 0.84352 35.3746 1.08943 35.0649 1.43186L23.1565 14.5992L5.28406 24.6116L12.1533 33.1942L26.7426 19.0711L41.8059 9.6454C42.1724 9.41661 42.47 9.09268 42.6671 8.70818C42.8641 8.32367 42.9532 7.89294 42.9249 7.46181C42.728 4.07124 40.946 1.83594 37.5787 0.755821Z" fill="#C8C9D3"/>
<path d="M12.1442 33.2115C13.5508 32.081 13.1469 29.2432 11.2421 26.8733C9.33727 24.5033 6.65282 23.4985 5.24621 24.629C3.83961 25.7596 4.24352 28.5973 6.14836 30.9673C8.05319 33.3373 10.7376 34.342 12.1442 33.2115Z" fill="#B3B3BD"/>
<path d="M27.9185 17.5051L24.9745 17.7787L25.4603 23.0052L28.4043 22.7316L27.9185 17.5051Z" fill="#7B41C9"/>
<path d="M26.5963 23.2868L23.8789 24.452L27.4298 32.7328L30.1472 31.5676L26.5963 23.2868Z" fill="#7B41C9"/>
<path d="M25.8683 21.2157L23.8945 24.4582L26.4201 25.9956L28.3939 22.7531L25.8683 21.2157Z" fill="#7B41C9"/>
<path d="M26.1356 16.8335L26.0031 19.7873L31.2468 20.0227L31.3794 17.0689L26.1356 16.8335Z" fill="#7B41C9"/>
<path d="M32.7388 15.4896L32.5387 18.4395L41.528 19.0492L41.7281 16.0993L32.7388 15.4896Z" fill="#7B41C9"/>
<path d="M32.7586 15.4305L29.6143 17.557L31.2706 20.0062L34.415 17.8797L32.7586 15.4305Z" fill="#7B41C9"/>
<path fill-rule="evenodd" clip-rule="evenodd" d="M24.1977 13.2976L21.5129 15.4579C23.6188 17.1091 24.4774 18.1387 25.6702 20.8079L28.355 18.6516C27.1583 16.0134 26.3735 14.8945 24.1977 13.2976Z" fill="#A35FFF"/>
</svg>
