<svg width="24" height="22" viewBox="0 0 24 22" fill="none" xmlns="http://www.w3.org/2000/svg">
<path fill-rule="evenodd" clip-rule="evenodd" d="M9.25288 1.05562C11.0108 0.231459 12.9888 0.23146 14.7467 1.05562L21.9955 4.45403C23.1355 4.98848 23.6457 6.14908 23.6457 7.20836C23.6457 8.26764 23.1355 9.42824 21.9955 9.96269L20.3957 10.7127V16.0109C20.3957 17.3683 19.7151 18.679 18.476 19.3651C17.6617 19.8161 16.5915 20.3591 15.4652 20.7911C14.3523 21.2181 13.1199 21.5625 11.9998 21.5625C10.8798 21.5625 9.64739 21.2181 8.53443 20.7911C7.40822 20.3591 6.33802 19.8161 5.52365 19.3651C4.28462 18.679 3.604 17.3683 3.604 16.0109V10.7127L2.00417 9.96264L1.979 9.95069V13.1667C1.979 13.6154 1.61524 13.9792 1.1665 13.9792C0.717773 13.9792 0.354004 13.6154 0.354004 13.1667V7.20833C0.354004 6.14905 0.864198 4.98843 2.00418 4.45398L9.25288 1.05562ZM5.229 11.4745V16.0109C5.229 16.8375 5.63932 17.5717 6.31091 17.9436C7.08728 18.3735 8.08552 18.8784 9.11648 19.2739C10.1607 19.6746 11.1742 19.9375 11.9998 19.9375C12.8254 19.9375 13.839 19.6746 14.8832 19.2739C15.9142 18.8784 16.9124 18.3735 17.6888 17.9436C18.3604 17.5717 18.7707 16.8375 18.7707 16.0109V11.4746L14.7468 13.361C12.9888 14.1852 11.0109 14.1852 9.25298 13.361L5.229 11.4745ZM2.69397 8.49131C2.25719 8.28654 1.979 7.79808 1.979 7.20831C1.979 6.61854 2.25719 6.13008 2.69397 5.92531L9.94268 2.52695C11.2636 1.90768 12.736 1.90768 14.0569 2.52695L21.3057 5.92536C21.7425 6.13013 22.0207 6.61858 22.0207 7.20836C22.0207 7.79813 21.7425 8.28659 21.3057 8.49136L14.057 11.8897C12.7361 12.509 11.2637 12.509 9.94277 11.8897L2.69397 8.49131Z" fill="#04030A" fill-opacity="0.38"/>
</svg>
